ply
format ascii 1.0
comment Exported by Aspose.3D 22.12
element vertex 374
property float x
property float y
property float z
property float nx
property float ny
property float nz
element face 744
property list uchar int vertex_index
end_header
190.39247131347656 10 6.399580955505371 0.49955320358276367 0.5 0.01959271046022574
190.39247131347656 0 6.399580955505371 0.4997413158416748 -0.5 0.013996147861083347
190.5 10 -2.3329521840298288E-14 0.49992942810058594 0.5 0.0027998617539803186
190.5 0 -2.3329521840298288E-14 0.49992942810058594 -0.5 -0.0027998617539803186
190.39247131347656 10 -6.399580955505371 0.4997413158416748 0.5 -0.013996147861083347
190.39247131347656 0 -6.399580955505371 0.49955320358276367 -0.5 -0.01959271046022574
190.0700225830078 10 -12.791936874389648 0.498989075422287 0.5 -0.03077635789910952
190.0700225830078 0 -12.791936874389648 0.49861305952072144 -0.5 -0.03636344273885091
189.53302001953125 10 -19.16985321044922 0.49767355124155677 0.5 -0.04752182712157567
189.53302001953125 0 -19.16985321044922 0.4971100588639577 -0.5 -0.053093126664559044
188.7820587158203 10 -25.52613067626953 0.49579622348149616 0.5 -0.06421365092198053
188.7820587158203 0 -25.52613067626953 0.49504588047663367 -0.5 -0.06976287563641866
187.8179931640625 10 -31.853591918945312 0.49335920810699463 0.5 -0.08083298554023106
187.8179931640625 0 -31.853591918945312 0.492422878742218 -0.5 -0.08635387072960535
186.64190673828125 10 -38.14509582519531 0.4903652767340342 0.5 -0.09736107289791107
186.64190673828125 0 -38.14509582519531 0.489244004090627 -0.5 -0.1028473898768425
185.255126953125 10 -44.39353942871094 0.48681778709093726 0.5 -0.11377925674120584
185.255126953125 0 -44.39353942871094 0.4855128427346547 -0.5 -0.11922480662663777
183.6592254638672 10 -50.59186935424805 0.4827207624912262 0.5 -0.13006899754206339
183.6592254638672 0 -50.59186935424805 0.4812336266040802 -0.5 -0.13546763857205707
181.8560028076172 10 -56.733089447021484 0.47807883222897846 0.5 -0.1462119122346242
181.8560028076172 0 -56.733089447021484 0.4764111737410227 -0.5 -0.15155754486719766
179.8474884033203 10 -62.810264587402344 0.47289721171061194 0.5 -0.16218977173169452
179.8474884033203 0 -62.810264587402344 0.4710509081681569 -0.5 -0.16747636596361795
177.63595581054688 10 -68.81653594970703 0.4671817521254221 0.5 -0.1779845505952835
177.63595581054688 0 -68.81653594970703 0.4651588996251424 -0.5 -0.18320614099502563
175.22390747070312 10 -74.74512481689453 0.46093892057736713 0.5 -0.19357841213544208
175.22390747070312 0 -74.74512481689453 0.4587417940298716 -0.5 -0.19872909287611643
172.61404418945312 10 -80.58934020996094 0.4541757504145304 0.5 -0.20895374317963916
172.61404418945312 0 -80.58934020996094 0.45180683334668476 -0.5 -0.21402771274248758
169.809326171875 10 -86.34258270263672 0.4468998908996582 0.5 -0.22409320374329883
169.809326171875 0 -86.34258270263672 0.4443618655204773 -0.5 -0.2290847251812617
166.81292724609375 10 -91.99835205078125 0.43911955753962195 0.5 -0.2389796922604243
166.81292724609375 0 -91.99835205078125 0.4364152749379476 -0.5 -0.24388313790162403
163.6282196044922 10 -97.55027770996094 0.4308435221513112 0.5 -0.25359641512235004
163.6282196044922 0 -97.55027770996094 0.42797605196634925 -0.5 -0.2584062467018763
160.25880432128906 10 -102.99207305908203 0.4220811426639557 0.5 -0.26792686184247333
160.25880432128906 0 -102.99207305908203 0.41905370354652405 -0.5 -0.27263764540354407
156.70846557617188 10 -108.31761169433594 0.4128422737121582 0.5 -0.2819548547267914
156.70846557617188 0 -108.31761169433594 0.409658282995224 -0.5 -0.2865612804889679
152.9812469482422 10 -113.52088165283203 0.40313736597696936 0.5 -0.29566457867622375
152.9812469482422 0 -113.52088165283203 0.399800439675649 -0.5 -0.3001614511013031
149.08131408691406 10 -118.59599304199219 0.3929773966471354 0.5 -0.30904054641723633
149.08131408691406 0 -118.59599304199219 0.3894912799199422 -0.5 -0.3134227693080902
145.0131072998047 10 -123.5372314453125 0.38237379988034564 0.5 -0.32206763823827106
145.0131072998047 0 -123.5372314453125 0.37874243656794226 -0.5 -0.326330284277598
140.7812042236328 10 -128.33901977539062 0.37133856614430744 0.5 -0.3347311715284983
140.7812042236328 0 -128.33901977539062 0.36756605903307593 -0.5 -0.3388694127400716
136.39036560058594 10 -132.9959259033203 0.3598841528097788 0.5 -0.3470168312390645
136.39036560058594 0 -132.9959259033203 0.3559747536977132 -0.5 -0.35102600852648413
131.8455810546875 10 -137.50270080566406 0.3480234841505686 0.5 -0.35891076922416687
131.8455810546875 0 -137.50270080566406 0.3439816137154897 -0.5 -0.36278635263442993
127.15194702148438 10 -141.85426330566406 0.3357699513435364 0.5 -0.37039955457051593
127.15194702148438 0 -141.85426330566406 0.331600159406662 -0.5 -0.37413717309633887
122.31478118896484 10 -146.04568481445312 0.3231373727321625 0.5 -0.38147021333376563
122.31478118896484 0 -146.04568481445312 0.31884437799453735 -0.5 -0.38506563504536945
117.33954620361328 10 -150.07225036621094 0.3101400236288706 0.5 -0.3921102384726206
117.33954620361328 0 -150.07225036621094 0.30572866400082904 -0.5 -0.395559420188268
112.23184967041016 10 -153.92941284179688 0.29679257671038306 0.5 -0.402307649453481
112.23184967041016 0 -153.92941284179688 0.2922678490479787 -0.5 -0.40560669700304663
106.9974594116211 10 -157.61279296875 0.283110111951828 0.5 -0.41205092271169025
106.9974594116211 0 -157.61279296875 0.27847710251808167 -0.5 -0.4151961008707682
101.64228820800781 10 -161.11827087402344 0.26910803715387976 0.5 -0.42132904132207233
101.64228820800781 0 -161.11827087402344 0.26437198122342426 -0.5 -0.42431680361429847
96.17237854003906 10 -164.44186401367188 0.2548021823167801 0.5 -0.4301315347353617
96.17237854003906 0 -164.44186401367188 0.24996843934059143 -0.5 -0.4329585035641988
90.59390258789062 10 -167.57981872558594 0.2402087052663167 0.5 -0.43844846884409583
90.59390258789062 0 -167.57981872558594 0.23528271416823068 -0.5 -0.4411114652951558
84.91315460205078 10 -170.5286102294922 0.22534405688444772 0.5 -0.4462704757849375
84.91315460205078 0 -170.5286102294922 0.2203313906987508 -0.5 -0.44876648982365924
79.13655853271484 10 -173.28489685058594 0.21022503574689227 0.5 -0.45358871420224506
79.13655853271484 0 -173.28489685058594 0.20513134698073068 -0.5 -0.45591492454210913
73.2706298828125 10 -175.84556579589844 0.19486870368321735 0.5 -0.4603949189186096
73.2706298828125 0 -175.84556579589844 0.18969974915186563 -0.5 -0.46254870295524597
67.32199096679688 10 -178.20774841308594 0.17929240067799884 0.5 -0.4666814009348551
67.32199096679688 0 -178.20774841308594 0.1740540067354838 -0.5 -0.46866031487782794
61.2973518371582 10 -180.36874389648438 0.1635136952002843 0.5 -0.4724410573641459
61.2973518371582 0 -180.36874389648438 0.15821177760759988 -0.5 -0.47424288590749103
55.20351791381836 10 -182.32614135742188 0.14755040407180786 0.5 -0.4776674211025238
55.20351791381836 0 -182.32614135742188 0.14219094812870026 -0.5 -0.4792901277542114
49.047367095947266 10 -184.0777130126953 0.1314205527305603 0.5 -0.4823545714219411
49.047367095947266 0 -184.0777130126953 0.12600961327552795 -0.5 -0.48379630843798316
42.83584976196289 10 -185.62149047851562 0.1151423528790474 0.5 -0.4864972035090128
42.83584976196289 0 -185.62149047851562 0.10968603193759918 -0.5 -0.48775636156400043
36.57598114013672 10 -186.9557342529297 0.09873417019844055 0.5 -0.49009065826733905
36.57598114013672 0 -186.9557342529297 0.09323862940073013 -0.5 -0.49116579691569007
30.274818420410156 10 -188.0789337158203 0.08221453179915746 0.5 -0.4931308627128601
30.274818420410156 0 -188.0789337158203 0.0766859749952952 -0.5 -0.4940207898616791
23.939483642578125 10 -188.9898223876953 0.06560208648443222 0.5 -0.49561441938082373
23.939483642578125 0 -188.9898223876953 0.06004675477743149 -0.5 -0.4963181217511495
17.57712173461914 10 -189.68736267089844 0.04891558736562729 0.5 -0.4975384970506032
17.57712173461914 0 -189.68736267089844 0.04333975166082382 -0.5 -0.4980551699797312
11.194920539855957 10 -190.1707763671875 0.032173869510491684 0.5 -0.4989009201526642
11.194920539855957 0 -190.1707763671875 0.02658382306496302 -0.5 -0.4992299973964691
4.8000807762146 10 -190.43951416015625 0.018474997580051424 0.4 -0.5996402025222779
4.8000807762146 0 -190.43951416015625 0.011757463216781616 -0.4 -0.5998095154762269
-1.6001774072647095 10 -190.4932861328125 -0.002099377568811178 0.25 -0.7499029785394669
-1.6001774072647095 0 -190.4932861328125 -0.01049866620451212 -0.25 -0.749832421541214
-7.998629093170166 10 -190.33200073242188 -0.018193421885371208 0.5 -0.49960612257321674
-7.998629093170166 0 -190.33200073242188 -0.023788207210600376 -0.5 -0.49937100211779273
-14.388051986694336 10 -189.95587158203125 -0.03496672213077545 0.5 -0.4987129469712575
-14.388051986694336 0 -189.95587158203125 -0.04055045172572136 -0.5 -0.49829001228014624
-20.761232376098633 10 -189.3653106689453 -0.05170054982105891 0.5 -0.4972568054993947
-20.761232376098633 0 -189.3653106689453 -0.05726691832145055 -0.5 -0.4966465334097544
-27.110977172851562 10 -188.5609893798828 -0.06837601462999979 0.5 -0.4952393372853597
-27.110977172851562 0 -188.5609893798828 -0.0739187424381574 -0.5 -0.49444241325060523
-33.430118560791016 10 -187.54380798339844 -0.08497429639101028 0.5 -0.49266281723976135
-33.430118560791016 0 -187.54380798339844 -0.09048712253570557 -0.5 -0.4916801452636719
-39.71152114868164 10 -186.31491088867188 -0.10147665192683537 0.5 -0.4895301560560862
-39.71152114868164 0 -186.31491088867188 -0.1069533551732699 -0.5 -0.48836283882459003
-45.94809341430664 10 -184.87570190429688 -0.11786445478598276 0.5 -0.4858448803424835
-45.94809341430664 0 -184.87570190429688 -0.1232988511522611 -0.5 -0.48449423909187317
-52.1328010559082 10 -183.227783203125 -0.13411920766035715 0.5 -0.4816111624240875
-52.1328010559082 0 -183.227783203125 -0.13950516780217487 -0.5 -0.48007872700691223
-58.2586555480957 10 -181.37303161621094 -0.15022256473700205 0.5 -0.4768337905406952
-58.2586555480957 0 -181.37303161621094 -0.15555400153001148 -0.5 -0.47512128949165344
-64.3187484741211 10 -179.3135528564453 -0.1661563366651535 0.5 -0.4715181489785512
-64.3187484741211 0 -179.3135528564453 -0.17142723500728607 -0.5 -0.4696275095144907
-70.30622863769531 10 -177.0516357421875 -0.18190254271030426 0.5 -0.46567022800445557
-70.30622863769531 0 -177.0516357421875 -0.18710695207118988 -0.5 -0.46360358595848083
-76.21434783935547 10 -174.58987426757812 -0.1974434107542038 0.5 -0.4592966238657633
-76.21434783935547 0 -174.58987426757812 -0.2025754600763321 -0.5 -0.45705630381902057
-82.03643798828125 10 -171.93101501464844 -0.2127613971630732 0.5 -0.4524045387903849
-82.03643798828125 0 -171.93101501464844 -0.21781528492768604 -0.5 -0.449993093808492
-87.76591491699219 10 -169.0780792236328 -0.22783920168876648 0.5 -0.4450017809867859
-87.76591491699219 0 -169.0780792236328 -0.23280923068523407 -0.5 -0.44242191314697266
-93.39631652832031 10 -166.03427124023438 -0.24265981713930765 0.5 -0.43709667523701984
-93.39631652832031 0 -166.03427124023438 -0.24754037459691364 -0.5 -0.43435130516688025
-98.9212875366211 10 -162.80303955078125 -0.25720650951067603 0.5 -0.4286981523036957
-98.9212875366211 0 -162.80303955078125 -0.26199208696683246 -0.5 -0.42579036951065063
-104.3345947265625 10 -159.3880157470703 -0.2714628577232361 0.5 -0.41981567939122516
-104.3345947265625 0 -159.3880157470703 -0.2761480510234833 -0.5 -0.41674877206484473
-109.630126953125 10 -155.7930908203125 -0.2854127585887909 0.5 -0.4104593098163605
-109.630126953125 0 -155.7930908203125 -0.2899922728538513 -0.5 -0.4072367548942566
-114.80189514160156 10 -152.02227783203125 -0.29904046654701233 0.5 -0.4006396134694417
-114.80189514160156 0 -152.02227783203125 -0.3035091459751129 -0.5 -0.3972650269667307
-119.84407806396484 10 -148.07986450195312 -0.31233061353365577 0.5 -0.3903676370779673
-119.84407806396484 0 -148.07986450195312 -0.3166834016640981 -0.5 -0.38684483369191486
-124.75096893310547 10 -143.9702911376953 -0.3252681791782379 0.5 -0.3796549836794535
-124.75096893310547 0 -143.9702911376953 -0.3295001685619354 -0.5 -0.3759879370530446
-129.5170440673828 10 -139.6981964111328 -0.3378385603427887 0.5 -0.3685137629508972
-129.5170440673828 0 -139.6981964111328 -0.34194496273994446 -0.5 -0.3647066354751587
-134.13690185546875 10 -135.26840209960938 -0.35002757112185157 0.5 -0.35695656140645343
-134.13690185546875 0 -135.26840209960938 -0.35400377710660297 -0.5 -0.3530136148134867
-138.6053466796875 10 -130.6859130859375 -0.3618214726448059 0.5 -0.3449963827927907
-138.6053466796875 0 -130.6859130859375 -0.36566296219825745 -0.5 -0.3409220973650614
-142.91732788085938 10 -125.95590209960938 -0.3732069134712219 0.5 -0.332646777232488
-142.91732788085938 0 -125.95590209960938 -0.37690937519073486 -0.5 -0.3284457425276438
-147.06796264648438 10 -121.08370208740234 -0.3841710786024729 0.5 -0.3199216624101003
-147.06796264648438 0 -121.08370208740234 -0.38773032029469806 -0.5 -0.3155986169974009
-151.05259704589844 10 -116.07481384277344 -0.3947015603383382 0.5 -0.3068354030450185
-151.05259704589844 0 -116.07481384277344 -0.3981135586897532 -0.5 -0.30239523450533545
-154.86671447753906 10 -110.93489837646484 -0.4047864774862925 0.5 -0.2934027810891469
-154.86671447753906 0 -110.93489837646484 -0.4080473979314168 -0.5 -0.28885049621264136
-158.50599670410156 10 -105.66975402832031 -0.4144144654273987 0.5 -0.27963894605636597
-158.50599670410156 0 -105.66975402832031 -0.4175206124782562 -0.5 -0.27497968077659607
-161.96636962890625 10 -100.28532409667969 -0.4235746363798777 0.5 -0.26555943489074707
-161.96636962890625 0 -100.28532409667969 -0.42652251323064166 -0.5 -0.26079845428466797
-165.243896484375 10 -94.78768920898438 -0.43225665887196857 0.5 -0.25118014713128406
-165.243896484375 0 -94.78768920898438 -0.4350429276625315 -0.5 -0.24632282058397928
-168.3348846435547 10 -89.18305206298828 -0.4404507279396057 0.5 -0.2365173101425171
-168.3348846435547 0 -89.18305206298828 -0.44307225942611694 -0.5 -0.23156912624835968
-171.23585510253906 10 -83.47773742675781 -0.4481476048628489 0.5 -0.22158748904863992
-171.23585510253906 0 -83.47773742675781 -0.45060141881306964 -0.5 -0.21655403574307758
-173.94351196289062 10 -77.67819213867188 -0.4553385774294535 0.5 -0.20640753209590912
-173.94351196289062 0 -77.67819213867188 -0.45762192209561664 -0.5 -0.20129448175430298
-176.454833984375 10 -71.79096221923828 -0.46201554934183753 0.5 -0.1909945656855901
-176.454833984375 0 -71.79096221923828 -0.4641258319218953 -0.5 -0.18580769995848337
-178.76695251464844 10 -65.82269287109375 -0.468170960744222 0.5 -0.17536599934101105
-178.76695251464844 0 -65.82269287109375 -0.47010580698649085 -0.5 -0.17011116445064545
-180.8772735595703 10 -59.780113220214844 -0.47379788756370544 0.5 -0.15953946610291797
-180.8772735595703 0 -59.780113220214844 -0.4755551218986511 -0.5 -0.15422260264555612
-182.78341674804688 10 -53.67005157470703 -0.47888998190561927 0.5 -0.14353284736474353
-182.78341674804688 0 -53.67005157470703 -0.4804676075776418 -0.5 -0.13815995554129282
-184.48321533203125 10 -47.49940490722656 -0.48344147205352783 0.5 -0.1273642008503278
-184.48321533203125 0 -47.49940490722656 -0.48483771085739136 -0.5 -0.12194133798281351
-185.97476196289062 10 -41.275142669677734 -0.48744722207387287 0.5 -0.11105177054802576
-185.97476196289062 0 -41.275142669677734 -0.48866049448649085 -0.5 -0.1055850659807523
-187.25637817382812 10 -35.0042839050293 -0.490902711947759 0.5 -0.09461398422718048
-187.25637817382812 0 -35.0042839050293 -0.49193165699640906 -0.5 -0.08910960704088211
-188.32659912109375 10 -28.693910598754883 -0.4938040574391683 0.5 -0.07806939134995142
-188.32659912109375 0 -28.693910598754883 -0.49464751283327735 -0.5 -0.07253355284531911
-189.18423461914062 10 -22.351146697998047 -0.4961479802926381 0.5 -0.061436668038368225
-189.18423461914062 0 -22.351146697998047 -0.4968049923578898 -0.5 -0.05587562173604965
-189.82830810546875 10 -15.98315143585205 -0.497931828101476 0.5 -0.04473459596435229
-189.82830810546875 0 -15.98315143585205 -0.49840165177981055 -0.5 -0.039154616494973496
-190.2581024169922 10 -9.597113609313965 -0.49915358424186707 0.5 -0.02798202447593212
-190.2581024169922 0 -9.597113609313965 -0.499435693025589 -0.5 -0.02238941192626953
-190.47311401367188 10 -3.200242042541504 -0.4998118678728739 0.5 -0.011197866251071293
-190.47311401367188 0 -3.200242042541504 -0.49990593393643695 -0.5 -0.0055989331255356465
-190.47311401367188 10 3.200242042541504 -0.49990593393643695 0.5 0.0055989331255356465
-190.47311401367188 0 3.200242042541504 -0.4998118678728739 -0.5 0.011197866251071293
-190.2581024169922 10 9.597113609313965 -0.499435693025589 0.5 0.02238941192626953
-190.2581024169922 0 9.597113609313965 -0.49915358424186707 -0.5 0.02798202447593212
-189.82830810546875 10 15.98315143585205 -0.49840165177981055 0.5 0.039154616494973496
-189.82830810546875 0 15.98315143585205 -0.497931828101476 -0.5 0.04473459596435229
-189.18423461914062 10 22.351146697998047 -0.4968049923578898 0.5 0.05587562173604965
-189.18423461914062 0 22.351146697998047 -0.4961479802926381 -0.5 0.061436668038368225
-188.32659912109375 10 28.693910598754883 -0.49464751283327735 0.5 0.07253355284531911
-188.32659912109375 0 28.693910598754883 -0.4938040574391683 -0.5 0.07806939134995142
-187.25637817382812 10 35.0042839050293 -0.49193165699640906 0.5 0.08910960704088211
-187.25637817382812 0 35.0042839050293 -0.490902711947759 -0.5 0.09461398422718048
-185.97476196289062 10 41.275142669677734 -0.48866049448649085 0.5 0.1055850659807523
-185.97476196289062 0 41.275142669677734 -0.48744722207387287 -0.5 0.11105177054802576
-184.48321533203125 10 47.49940490722656 -0.48483771085739136 0.5 0.12194133798281351
-184.48321533203125 0 47.49940490722656 -0.48344147205352783 -0.5 0.1273642008503278
-182.78341674804688 10 53.67005157470703 -0.4804676075776418 0.5 0.13815995554129282
-182.78341674804688 0 53.67005157470703 -0.47888998190561927 -0.5 0.14353284736474353
-180.8772735595703 10 59.780113220214844 -0.4755551218986511 0.5 0.15422260264555612
-180.8772735595703 0 59.780113220214844 -0.47379788756370544 -0.5 0.15953946610291797
-178.76695251464844 10 65.82269287109375 -0.47010580698649085 0.5 0.17011116445064545
-178.76695251464844 0 65.82269287109375 -0.468170960744222 -0.5 0.17536599934101105
-176.454833984375 10 71.79096221923828 -0.4641258319218953 0.5 0.18580769995848337
-176.454833984375 0 71.79096221923828 -0.46201554934183753 -0.5 0.1909945656855901
-173.94351196289062 10 77.67819213867188 -0.45762192209561664 0.5 0.20129448175430298
-173.94351196289062 0 77.67819213867188 -0.4553385774294535 -0.5 0.20640753209590912
-171.23585510253906 10 83.47773742675781 -0.45060141881306964 0.5 0.21655403574307758
-171.23585510253906 0 83.47773742675781 -0.4481476048628489 -0.5 0.22158748904863992
-168.3348846435547 10 89.18305206298828 -0.44307225942611694 0.5 0.23156912624835968
-168.3348846435547 0 89.18305206298828 -0.4404507279396057 -0.5 0.2365173101425171
-165.243896484375 10 94.78768920898438 -0.4350429276625315 0.5 0.24632282058397928
-165.243896484375 0 94.78768920898438 -0.43225665887196857 -0.5 0.25118014713128406
-161.96636962890625 10 100.28532409667969 -0.42652251323064166 0.5 0.26079845428466797
-161.96636962890625 0 100.28532409667969 -0.4235746363798777 -0.5 0.26555943489074707
-158.50599670410156 10 105.66975402832031 -0.4175206124782562 0.5 0.27497968077659607
-158.50599670410156 0 105.66975402832031 -0.4144144654273987 -0.5 0.27963894605636597
-154.86671447753906 10 110.93489837646484 -0.4080473979314168 0.5 0.28885049621264136
-154.86671447753906 0 110.93489837646484 -0.4047864774862925 -0.5 0.2934027810891469
-151.05259704589844 10 116.07481384277344 -0.4777362704277039 0.4 0.3628742814064026
-151.05259704589844 0 116.07481384277344 -0.47364187240600586 -0.4 0.36820248365402225
-147.06796264648438 10 121.08370208740234 -0.4652763843536377 0.4 0.3787183403968811
-147.06796264648438 0 121.08370208740234 -0.46100529432296755 -0.4 0.3839059948921204
-142.91732788085938 10 125.95590209960938 -0.45229125022888184 0.4 0.3941348910331726
-142.91732788085938 0 125.95590209960938 -0.44784829616546634 -0.4 0.3991761326789856
-138.6053466796875 10 130.6859130859375 -0.438795554637909 0.4 0.40910651683807375
-138.6053466796875 0 130.6859130859375 -0.4341857671737671 -0.4 0.4139956593513489
-134.13690185546875 10 135.26840209960938 -0.4248045325279236 0.4 0.4236163377761841
-134.13690185546875 0 135.26840209960938 -0.42003308534622197 -0.4 0.4283478736877442
-129.5170440673828 10 139.6981964111328 -0.41033395528793337 0.4 0.43764796257019045
-129.5170440673828 0 139.6981964111328 -0.40540627241134647 -0.4 0.44221651554107666
-124.75096893310547 10 143.9702911376953 -0.39540020227432254 0.4 0.45118552446365356
-124.75096893310547 0 143.9702911376953 -0.3903218150138855 -0.4 0.45558598041534426
-119.84407806396484 10 148.07986450195312 -0.3800200819969177 0.4 0.46421380043029786
-119.84407806396484 0 148.07986450195312 -0.374796736240387 -0.4 0.4684411644935608
-114.80189514160156 10 152.02227783203125 -0.3642109751701355 0.4 0.4767180323600769
-114.80189514160156 0 152.02227783203125 -0.35884855985641484 -0.4 0.4807675361633301
-109.630126953125 10 155.7930908203125 -0.3479907274246216 0.4 0.48868410587310795
-109.630126953125 0 155.7930908203125 -0.3424953103065491 -0.4 0.4925511717796326
-104.3345947265625 10 159.3880157470703 -0.33137766122817996 0.4 0.5000985264778137
-104.3345947265625 0 159.3880157470703 -0.3257554292678833 -0.4 0.5037788152694702
-98.9212875366211 10 162.80303955078125 -0.314390504360199 0.4 0.5109484434127808
-98.9212875366211 0 162.80303955078125 -0.3086478114128113 -0.4 0.5144377827644349
-93.39631652832031 10 166.03427124023438 -0.2970484495162964 0.4 0.5212215662002564
-93.39631652832031 0 166.03427124023438 -0.2911917805671692 -0.4 0.5245160102844239
-87.76591491699219 10 169.0780792236328 -0.2793710768222809 0.4 0.5309062957763672
-87.76591491699219 0 169.0780792236328 -0.2734070420265198 -0.4 0.5340021371841431
-82.03643798828125 10 171.93101501464844 -0.2613783419132233 0.4 0.5399917125701904
-82.03643798828125 0 171.93101501464844 -0.2553136765956879 -0.4 0.5428854465484619
-76.21434783935547 10 174.58987426757812 -0.24309055209159852 0.4 0.5484675645828248
-76.21434783935547 0 174.58987426757812 -0.23693209290504458 -0.4 0.551155948638916
-70.30622863769531 10 177.0516357421875 -0.22452834248542786 0.4 0.556324303150177
-70.30622863769531 0 177.0516357421875 -0.21828305125236513 -0.4 0.5588042736053467
-64.3187484741211 10 179.3135528564453 -0.2057126820087433 0.4 0.5635530114173889
-64.3187484741211 0 179.3135528564453 -0.19938760399818423 -0.4 0.5658217787742615
-58.2586555480957 10 181.37303161621094 -0.1866648018360138 0.4 0.5701455473899841
-58.2586555480957 0 181.37303161621094 -0.18026707768440248 -0.4 0.5722005486488343
-52.1328010559082 10 183.227783203125 -0.16740620136260986 0.4 0.5760944724082947
-52.1328010559082 0 183.227783203125 -0.1609430491924286 -0.4 0.577933394908905
-45.94809341430664 10 184.87570190429688 -0.14795862138271332 0.4 0.5813930869102478
-45.94809341430664 0 184.87570190429688 -0.14143734574317932 -0.4 0.5830138564109802
-39.71152114868164 10 186.31491088867188 -0.1283440262079239 0.4 0.586035406589508
-39.71152114868164 0 186.31491088867188 -0.12177198231220246 -0.4 0.5874361872673035
-33.430118560791016 10 187.54380798339844 -0.10858454704284669 0.4 0.5900161743164063
-33.430118560791016 0 187.54380798339844 -0.10196915566921234 -0.4 0.5911953806877136
-27.110977172851562 10 188.5609893798828 -0.08870249092578888 0.4 0.5933308959007263
-27.110977172851562 0 188.5609893798828 -0.08205121755599976 -0.4 0.5942872047424317
-20.761232376098633 10 189.3653106689453 -0.06872030198574067 0.4 0.5959758400917053
-20.761232376098633 0 189.3653106689453 -0.062040659785270694 -0.4 0.5967081665992737
-14.388051986694336 10 189.95587158203125 -0.048660542070865634 0.4 0.5979480147361755
-14.388051986694336 0 189.95587158203125 -0.04196006655693055 -0.4 0.5984555363655091
-7.998629093170166 10 190.33200073242188 -0.028545848652720453 0.4 0.5992452025413514
-7.998629093170166 0 190.33200073242188 -0.02183210626244545 -0.4 0.5995273470878602
-1.6001774072647095 10 190.4932861328125 -0.008398932963609695 0.4 0.5998659372329712
-1.6001774072647095 0 190.4932861328125 -0.0016795020550489427 -0.4 0.5999223828315735
4.8000807762146 10 190.43951416015625 0.011757463216781616 0.4 0.5998095154762269
4.8000807762146 0 190.43951416015625 0.018474997580051424 -0.4 0.5996402025222779
11.194920539855957 10 190.1707763671875 0.03190058767795563 0.4 0.599075996875763
11.194920539855957 0 190.1707763671875 0.03860864341259003 -0.4 0.5986811041831971
17.57712173461914 10 189.68736267089844 0.05200770199298859 0.4 0.5976662039756775
17.57712173461914 0 189.68736267089844 0.05869870483875275 -0.4 0.5970461964607239
23.939483642578125 10 188.9898223876953 0.07205610573291779 0.4 0.5955817461013794
23.939483642578125 0 188.9898223876953 0.07872250378131868 -0.4 0.5947373032569886
30.274818420410156 10 188.0789337158203 0.09202316999435425 0.4 0.592824947834015
30.274818420410156 0 188.0789337158203 0.09865743815898896 -0.4 0.5917570352554321
36.57598114013672 10 186.9557342529297 0.11188635528087616 0.4 0.5893989562988281
36.57598114013672 0 186.9557342529297 0.11848100423812867 -0.4 0.588108789920807
42.83584976196289 10 185.62149047851562 0.13162323832511902 0.4 0.5853076338768005
42.83584976196289 0 185.62149047851562 0.13817082345485687 -0.4 0.5837966442108155
49.047367095947266 10 184.0777130126953 0.15121153593063355 0.4 0.5805555701255799
49.047367095947266 0 184.0777130126953 0.15770466327667237 -0.4 0.5788254857063294
55.20351791381836 10 182.32614135742188 0.17062913775444033 0.4 0.5751481533050538
55.20351791381836 0 182.32614135742188 0.17706048488616943 -0.4 0.5732009053230286
61.2973518371582 10 180.36874389648438 0.1898541331291199 0.4 0.5690914630889893
61.2973518371582 0 180.36874389648438 0.1962164342403412 -0.4 0.5669292688369751
67.32199096679688 10 178.20774841308594 0.20886480808258057 0.4 0.5623923778533936
67.32199096679688 0 178.20774841308594 0.21515088081359865 -0.4 0.5600176811218261
73.2706298828125 10 175.84556579589844 0.2276396989822388 0.4 0.5550584435462952
73.2706298828125 0 175.84556579589844 0.23384244441986085 -0.4 0.5524739027023315
79.13655853271484 10 173.28489685058594 0.24615761637687683 0.4 0.547097909450531
79.13655853271484 0 173.28489685058594 0.25227004289627075 -0.4 0.5443064570426941
84.91315460205078 10 170.5286102294922 0.26439766883850097 0.4 0.5385197877883912
84.91315460205078 0 170.5286102294922 0.2704128682613373 -0.4 0.5355245709419251
90.59390258789062 10 167.57981872558594 0.28233925700187684 0.4 0.5293337583541871
90.59390258789062 0 167.57981872558594 0.2882504463195801 -0.4 0.526138162612915
96.17237854003906 10 164.44186401367188 0.29996212720870974 0.4 0.5195502042770386
96.17237854003906 0 164.44186401367188 0.3057626187801361 -0.4 0.5161578416824341
101.64228820800781 10 161.11827087402344 0.31724637746810913 0.4 0.5091801643371582
101.64228820800781 0 161.11827087402344 0.3229296445846558 -0.4 0.5055948495864868
106.9974594116211 10 157.61279296875 0.33417252302169803 0.4 0.4982353210449219
106.9974594116211 0 157.61279296875 0.3397321343421936 -0.4 0.49446110725402836
112.23184967041016 10 153.92941284179688 0.35072141885757446 0.4 0.48672803640365603
112.23184967041016 0 153.92941284179688 0.35615109205245976 -0.4 0.4827691793441773
117.33954620361328 10 150.07225036621094 0.3668743968009949 0.4 0.47467130422592163
117.33954620361328 0 150.07225036621094 0.3721680283546448 -0.4 0.4705322861671448
122.31478118896484 10 146.04568481445312 0.38261325359344484 0.4 0.46207876205444337
122.31478118896484 0 146.04568481445312 0.387764847278595 -0.4 0.45776425600051884
127.15194702148438 10 141.85426330566406 0.3979201912879944 0.4 0.4489646077156067
127.15194702148438 0 141.85426330566406 0.40292394161224365 -0.4 0.44447946548461914
131.8455810546875 10 137.50270080566406 0.4127779364585877 0.4 0.4353436231613159
131.8455810546875 0 137.50270080566406 0.4176281809806824 -0.4 0.43069292306900026
136.39036560058594 10 132.9959259033203 0.4271697044372559 0.4 0.421231210231781
136.39036560058594 0 132.9959259033203 0.4318609833717346 -0.4 0.4164201974868775
140.7812042236328 10 128.33901977539062 0.4410792708396912 0.4 0.40664329528808596
140.7812042236328 0 128.33901977539062 0.445606279373169 -0.4 0.40167740583419803
145.0131072998047 10 123.5372314453125 0.4544909238815308 0.4 0.3915963411331177
145.0131072998047 0 123.5372314453125 0.4588485598564148 -0.4 0.3864811658859253
149.08131408691406 10 118.59599304199219 0.5842369198799133 0.25 0.4701341539621353
149.08131408691406 0 118.59599304199219 0.5894660949707031 -0.25 0.4635608196258545
152.9812469482422 10 113.52088165283203 0.04065767183142193 0.9491525423728814 0.03052489333233591
152.9812469482422 0 113.52088165283203 0.040997020268844345 -0.9491525423728814 0.03006758427215835
156.70846557617188 10 108.31761169433594 0.409658282995224 0.5 0.2865612804889679
156.70846557617188 0 108.31761169433594 0.4128422737121582 -0.5 0.2819548547267914
160.25880432128906 10 102.99207305908203 0.41905370354652405 0.5 0.27263764540354407
160.25880432128906 0 102.99207305908203 0.4220811426639557 -0.5 0.26792686184247333
163.6282196044922 10 97.55027770996094 0.42797605196634925 0.5 0.2584062467018763
163.6282196044922 0 97.55027770996094 0.4308435221513112 -0.5 0.25359641512235004
166.81292724609375 10 91.99835205078125 0.4364152749379476 0.5 0.24388313790162403
166.81292724609375 0 91.99835205078125 0.43911955753962195 -0.5 0.2389796922604243
169.809326171875 10 86.34258270263672 0.4443618655204773 0.5 0.2290847251812617
169.809326171875 0 86.34258270263672 0.4468998908996582 -0.5 0.22409320374329883
172.61404418945312 10 80.58934020996094 0.45180683334668476 0.5 0.21402771274248758
172.61404418945312 0 80.58934020996094 0.4541757504145304 -0.5 0.20895374317963916
175.22390747070312 10 74.74512481689453 0.4587417940298716 0.5 0.19872909287611643
175.22390747070312 0 74.74512481689453 0.46093892057736713 -0.5 0.19357841213544208
177.63595581054688 10 68.81653594970703 0.4651588996251424 0.5 0.18320614099502563
177.63595581054688 0 68.81653594970703 0.4671817521254221 -0.5 0.1779845505952835
179.8474884033203 10 62.810264587402344 0.4710509081681569 0.5 0.16747636596361795
179.8474884033203 0 62.810264587402344 0.47289721171061194 -0.5 0.16218977173169452
181.8560028076172 10 56.733089447021484 0.4764111737410227 0.5 0.15155754486719766
181.8560028076172 0 56.733089447021484 0.47807883222897846 -0.5 0.1462119122346242
183.6592254638672 10 50.59186935424805 0.4812336266040802 0.5 0.13546763857205707
183.6592254638672 0 50.59186935424805 0.4827207624912262 -0.5 0.13006899754206339
185.255126953125 10 44.39353942871094 0.4855128427346547 0.5 0.11922480662663777
185.255126953125 0 44.39353942871094 0.48681778709093726 -0.5 0.11377925674120584
186.64190673828125 10 38.14509582519531 0.489244004090627 0.5 0.1028473898768425
186.64190673828125 0 38.14509582519531 0.4903652767340342 -0.5 0.09736107289791107
187.8179931640625 10 31.853591918945312 0.492422878742218 0.5 0.08635387072960535
187.8179931640625 0 31.853591918945312 0.49335920810699463 -0.5 0.08083298554023106
188.7820587158203 10 25.52613067626953 0.49504588047663367 0.5 0.06976287563641866
188.7820587158203 0 25.52613067626953 0.49579622348149616 -0.5 0.06421365092198053
189.53302001953125 10 19.16985321044922 0.4971100588639577 0.5 0.053093126664559044
189.53302001953125 0 19.16985321044922 0.49767355124155677 -0.5 0.04752182712157567
190.0700225830078 10 12.791936874389648 0.49861305952072144 0.5 0.03636344273885091
190.0700225830078 0 12.791936874389648 0.498989075422287 -0.5 0.03077635789910952
3 0 1 2
3 2 1 3
3 2 3 4
3 4 3 5
3 4 5 6
3 6 5 7
3 6 7 8
3 8 7 9
3 8 9 10
3 10 9 11
3 10 11 12
3 12 11 13
3 12 13 14
3 14 13 15
3 14 15 16
3 16 15 17
3 16 17 18
3 18 17 19
3 18 19 20
3 20 19 21
3 20 21 22
3 22 21 23
3 22 23 24
3 24 23 25
3 24 25 26
3 26 25 27
3 26 27 28
3 28 27 29
3 28 29 30
3 30 29 31
3 30 31 32
3 32 31 33
3 32 33 34
3 34 33 35
3 34 35 36
3 36 35 37
3 36 37 38
3 38 37 39
3 38 39 40
3 40 39 41
3 40 41 42
3 42 41 43
3 42 43 44
3 44 43 45
3 44 45 46
3 46 45 47
3 46 47 48
3 48 47 49
3 48 49 50
3 50 49 51
3 50 51 52
3 52 51 53
3 52 53 54
3 54 53 55
3 54 55 56
3 56 55 57
3 56 57 58
3 58 57 59
3 58 59 60
3 60 59 61
3 60 61 62
3 62 61 63
3 62 63 64
3 64 63 65
3 64 65 66
3 66 65 67
3 66 67 68
3 68 67 69
3 68 69 70
3 70 69 71
3 70 71 72
3 72 71 73
3 72 73 74
3 74 73 75
3 74 75 76
3 76 75 77
3 76 77 78
3 78 77 79
3 78 79 80
3 80 79 81
3 80 81 82
3 82 81 83
3 82 83 84
3 84 83 85
3 84 85 86
3 86 85 87
3 86 87 88
3 88 87 89
3 88 89 90
3 90 89 91
3 90 91 92
3 92 91 93
3 92 93 94
3 94 93 95
3 94 95 96
3 96 95 97
3 96 97 98
3 98 97 99
3 98 99 100
3 100 99 101
3 100 101 102
3 102 101 103
3 102 103 104
3 104 103 105
3 104 105 106
3 106 105 107
3 106 107 108
3 108 107 109
3 108 109 110
3 110 109 111
3 110 111 112
3 112 111 113
3 112 113 114
3 114 113 115
3 114 115 116
3 116 115 117
3 116 117 118
3 118 117 119
3 118 119 120
3 120 119 121
3 120 121 122
3 122 121 123
3 122 123 124
3 124 123 125
3 124 125 126
3 126 125 127
3 126 127 128
3 128 127 129
3 128 129 130
3 130 129 131
3 130 131 132
3 132 131 133
3 132 133 134
3 134 133 135
3 134 135 136
3 136 135 137
3 136 137 138
3 138 137 139
3 138 139 140
3 140 139 141
3 140 141 142
3 142 141 143
3 142 143 144
3 144 143 145
3 144 145 146
3 146 145 147
3 146 147 148
3 148 147 149
3 148 149 150
3 150 149 151
3 150 151 152
3 152 151 153
3 152 153 154
3 154 153 155
3 154 155 156
3 156 155 157
3 156 157 158
3 158 157 159
3 158 159 160
3 160 159 161
3 160 161 162
3 162 161 163
3 162 163 164
3 164 163 165
3 164 165 166
3 166 165 167
3 166 167 168
3 168 167 169
3 168 169 170
3 170 169 171
3 170 171 172
3 172 171 173
3 172 173 174
3 174 173 175
3 174 175 176
3 176 175 177
3 176 177 178
3 178 177 179
3 178 179 180
3 180 179 181
3 180 181 182
3 182 181 183
3 182 183 184
3 184 183 185
3 184 185 186
3 186 185 187
3 186 187 188
3 188 187 189
3 188 189 190
3 190 189 191
3 190 191 192
3 192 191 193
3 192 193 194
3 194 193 195
3 194 195 196
3 196 195 197
3 196 197 198
3 198 197 199
3 198 199 200
3 200 199 201
3 200 201 202
3 202 201 203
3 202 203 204
3 204 203 205
3 204 205 206
3 206 205 207
3 206 207 208
3 208 207 209
3 208 209 210
3 210 209 211
3 210 211 212
3 212 211 213
3 212 213 214
3 214 213 215
3 214 215 216
3 216 215 217
3 216 217 218
3 218 217 219
3 218 219 220
3 220 219 221
3 220 221 222
3 222 221 223
3 222 223 224
3 224 223 225
3 224 225 226
3 226 225 227
3 226 227 228
3 228 227 229
3 228 229 230
3 230 229 231
3 230 231 232
3 232 231 233
3 232 233 234
3 234 233 235
3 234 235 236
3 236 235 237
3 236 237 238
3 238 237 239
3 238 239 240
3 240 239 241
3 240 241 242
3 242 241 243
3 242 243 244
3 244 243 245
3 244 245 246
3 246 245 247
3 246 247 248
3 248 247 249
3 248 249 250
3 250 249 251
3 250 251 252
3 252 251 253
3 252 253 254
3 254 253 255
3 254 255 256
3 256 255 257
3 256 257 258
3 258 257 259
3 258 259 260
3 260 259 261
3 260 261 262
3 262 261 263
3 262 263 264
3 264 263 265
3 264 265 266
3 266 265 267
3 266 267 268
3 268 267 269
3 268 269 270
3 270 269 271
3 270 271 272
3 272 271 273
3 272 273 274
3 274 273 275
3 274 275 276
3 276 275 277
3 276 277 278
3 278 277 279
3 278 279 280
3 280 279 281
3 280 281 282
3 282 281 283
3 282 283 284
3 284 283 285
3 284 285 286
3 286 285 287
3 286 287 288
3 288 287 289
3 288 289 290
3 290 289 291
3 290 291 292
3 292 291 293
3 292 293 294
3 294 293 295
3 294 295 296
3 296 295 297
3 296 297 298
3 298 297 299
3 298 299 300
3 300 299 301
3 300 301 302
3 302 301 303
3 302 303 304
3 304 303 305
3 304 305 306
3 306 305 307
3 306 307 308
3 308 307 309
3 308 309 310
3 310 309 311
3 310 311 312
3 312 311 313
3 312 313 314
3 314 313 315
3 314 315 316
3 316 315 317
3 316 317 318
3 318 317 319
3 318 319 320
3 320 319 321
3 320 321 322
3 322 321 323
3 322 323 324
3 324 323 325
3 324 325 326
3 326 325 327
3 326 327 328
3 328 327 329
3 328 329 330
3 330 329 331
3 330 331 332
3 332 331 333
3 332 333 334
3 334 333 335
3 334 335 336
3 336 335 337
3 336 337 338
3 338 337 339
3 338 339 340
3 340 339 341
3 340 341 342
3 342 341 343
3 342 343 344
3 344 343 345
3 344 345 346
3 346 345 347
3 346 347 348
3 348 347 349
3 348 349 350
3 350 349 351
3 350 351 352
3 352 351 353
3 352 353 354
3 354 353 355
3 354 355 356
3 356 355 357
3 356 357 358
3 358 357 359
3 358 359 360
3 360 359 361
3 360 361 362
3 362 361 363
3 362 363 364
3 364 363 365
3 364 365 366
3 366 365 367
3 366 367 368
3 368 367 369
3 368 369 370
3 370 369 371
3 370 371 372
3 372 371 373
3 372 373 0
3 0 373 1
3 4 188 2
3 2 188 190
3 2 190 0
3 0 190 192
3 0 192 372
3 372 192 194
3 372 194 370
3 370 194 196
3 370 196 368
3 368 196 198
3 368 198 366
3 366 198 200
3 366 200 364
3 364 200 202
3 364 202 362
3 362 202 204
3 362 204 360
3 360 204 206
3 360 206 358
3 358 206 208
3 358 208 356
3 356 208 210
3 356 210 354
3 354 210 212
3 354 212 352
3 352 212 214
3 352 214 350
3 350 214 216
3 350 216 348
3 348 216 218
3 348 218 346
3 346 218 220
3 346 220 344
3 344 220 222
3 344 222 342
3 342 222 224
3 342 224 340
3 340 224 226
3 340 226 338
3 338 226 228
3 338 228 230
3 188 4 186
3 186 4 6
3 186 6 184
3 184 6 8
3 184 8 182
3 182 8 10
3 182 10 180
3 180 10 12
3 180 12 178
3 178 12 14
3 178 14 176
3 176 14 16
3 176 16 174
3 174 16 18
3 174 18 172
3 172 18 20
3 172 20 170
3 170 20 22
3 170 22 168
3 168 22 24
3 168 24 166
3 166 24 26
3 166 26 164
3 164 26 28
3 164 28 162
3 162 28 30
3 162 30 160
3 160 30 32
3 160 32 158
3 158 32 34
3 158 34 156
3 156 34 36
3 156 36 154
3 154 36 38
3 154 38 152
3 152 38 40
3 152 40 150
3 150 40 42
3 150 42 148
3 148 42 44
3 148 44 146
3 146 44 46
3 146 46 144
3 144 46 48
3 144 48 142
3 142 48 50
3 142 50 140
3 140 50 52
3 140 52 138
3 138 52 54
3 138 54 136
3 136 54 56
3 136 56 134
3 134 56 58
3 134 58 132
3 132 58 60
3 132 60 130
3 130 60 62
3 130 62 128
3 128 62 64
3 128 64 126
3 126 64 66
3 126 66 124
3 124 66 68
3 124 68 122
3 122 68 70
3 122 70 120
3 120 70 72
3 120 72 118
3 118 72 74
3 118 74 116
3 116 74 76
3 116 76 114
3 114 76 78
3 114 78 112
3 112 78 80
3 112 80 110
3 110 80 82
3 110 82 108
3 108 82 84
3 108 84 106
3 106 84 86
3 106 86 104
3 104 86 88
3 104 88 102
3 102 88 90
3 102 90 100
3 100 90 92
3 100 92 98
3 98 92 94
3 98 94 96
3 230 232 338
3 338 232 234
3 338 234 236
3 236 238 338
3 338 238 240
3 338 240 242
3 242 244 338
3 338 244 246
3 338 246 248
3 248 250 338
3 338 250 252
3 338 252 254
3 254 256 338
3 338 256 258
3 338 258 260
3 260 262 338
3 338 262 264
3 338 264 266
3 266 268 338
3 338 268 270
3 338 270 272
3 272 274 338
3 338 274 276
3 338 276 278
3 278 280 338
3 338 280 282
3 338 282 284
3 284 286 338
3 338 286 288
3 338 288 290
3 290 292 338
3 338 292 294
3 338 294 296
3 296 298 338
3 338 298 300
3 338 300 302
3 302 304 338
3 338 304 306
3 338 306 308
3 308 310 338
3 338 310 312
3 338 312 314
3 314 316 338
3 338 316 318
3 338 318 320
3 320 322 338
3 338 322 324
3 338 324 326
3 326 328 338
3 338 328 330
3 338 330 332
3 332 334 338
3 338 334 336
3 1 191 3
3 3 191 189
3 3 189 5
3 5 189 187
3 5 187 7
3 7 187 185
3 7 185 9
3 9 185 183
3 9 183 11
3 11 183 181
3 11 181 13
3 13 181 179
3 13 179 15
3 15 179 177
3 15 177 17
3 17 177 175
3 17 175 19
3 19 175 173
3 19 173 21
3 21 173 171
3 21 171 23
3 23 171 169
3 23 169 25
3 25 169 167
3 25 167 27
3 27 167 165
3 27 165 29
3 29 165 163
3 29 163 31
3 31 163 161
3 31 161 33
3 33 161 159
3 33 159 35
3 35 159 157
3 35 157 37
3 37 157 155
3 37 155 39
3 39 155 153
3 39 153 41
3 41 153 151
3 41 151 43
3 43 151 149
3 43 149 45
3 45 149 147
3 45 147 47
3 47 147 145
3 47 145 49
3 49 145 143
3 49 143 51
3 51 143 141
3 51 141 53
3 53 141 139
3 53 139 55
3 55 139 137
3 55 137 57
3 57 137 135
3 57 135 59
3 59 135 133
3 59 133 61
3 61 133 131
3 61 131 63
3 63 131 129
3 63 129 65
3 65 129 127
3 65 127 67
3 67 127 125
3 67 125 69
3 69 125 123
3 69 123 71
3 71 123 121
3 71 121 73
3 73 121 119
3 73 119 75
3 75 119 117
3 75 117 77
3 77 117 115
3 77 115 79
3 79 115 113
3 79 113 81
3 81 113 111
3 81 111 83
3 83 111 109
3 83 109 85
3 85 109 107
3 85 107 87
3 87 107 105
3 87 105 89
3 89 105 103
3 89 103 91
3 91 103 101
3 91 101 93
3 93 101 99
3 93 99 95
3 95 99 97
3 191 1 193
3 193 1 373
3 193 373 195
3 195 373 371
3 195 371 197
3 197 371 369
3 197 369 199
3 199 369 367
3 199 367 201
3 201 367 365
3 201 365 203
3 203 365 363
3 203 363 205
3 205 363 361
3 205 361 207
3 207 361 359
3 207 359 209
3 209 359 357
3 209 357 211
3 211 357 355
3 211 355 213
3 213 355 353
3 213 353 215
3 215 353 351
3 215 351 217
3 217 351 349
3 217 349 219
3 219 349 347
3 219 347 221
3 221 347 345
3 221 345 223
3 223 345 343
3 223 343 225
3 225 343 341
3 225 341 227
3 227 341 339
3 227 339 229
3 229 339 231
3 231 339 233
3 233 339 235
3 235 339 237
3 237 339 239
3 239 339 241
3 241 339 243
3 243 339 245
3 245 339 247
3 247 339 249
3 249 339 251
3 251 339 253
3 253 339 255
3 255 339 257
3 257 339 259
3 259 339 261
3 261 339 263
3 263 339 265
3 265 339 267
3 267 339 269
3 269 339 271
3 271 339 273
3 273 339 275
3 275 339 277
3 277 339 279
3 279 339 281
3 281 339 283
3 283 339 285
3 285 339 287
3 287 339 289
3 289 339 291
3 291 339 293
3 293 339 295
3 295 339 297
3 297 339 299
3 299 339 301
3 301 339 303
3 303 339 305
3 305 339 307
3 307 339 309
3 309 339 311
3 311 339 313
3 313 339 315
3 315 339 317
3 317 339 319
3 319 339 321
3 321 339 323
3 323 339 325
3 325 339 327
3 327 339 329
3 329 339 331
3 331 339 333
3 333 339 335
3 335 339 337
