<?xml version="1.0" encoding="UTF-8" standalone="no"?>
<!-- Created with Inkscape (http://www.inkscape.org/) -->
<svg
   xmlns:dc="http://purl.org/dc/elements/1.1/"
   xmlns:cc="http://web.resource.org/cc/"
   xmlns:rdf="http://www.w3.org/1999/02/22-rdf-syntax-ns#"
   xmlns:svg="http://www.w3.org/2000/svg"
   xmlns="http://www.w3.org/2000/svg"
   xmlns:sodipodi="http://inkscape.sourceforge.net/DTD/sodipodi-0.dtd"
   xmlns:inkscape="http://www.inkscape.org/namespaces/inkscape"
   inkscape:export-ydpi="72.000000"
   inkscape:export-xdpi="72.000000"
   inkscape:export-filename="/users/brisset/pprz/savannah/paparazzi3/data/pictures/penguin_logo.png"
   width="210mm"
   height="297mm"
   id="svg2"
   sodipodi:version="0.32"
   inkscape:version="0.41.1"
   sodipodi:docbase="/users/brisset/pprz/savannah/paparazzi3/data/pictures"
   sodipodi:docname="penguin_logo.svg">
  <defs
     id="defs3" />
  <sodipodi:namedview
     id="base"
     pagecolor="#ffffff"
     bordercolor="#666666"
     borderopacity="1.0"
     inkscape:pageopacity="0.0"
     inkscape:pageshadow="2"
     inkscape:zoom="1.7362501"
     inkscape:cx="264.88757"
     inkscape:cy="910.40847"
     inkscape:document-units="px"
     inkscape:current-layer="layer1"
     inkscape:window-width="1440"
     inkscape:window-height="825"
     inkscape:window-x="-27"
     inkscape:window-y="154" />
  <metadata
     id="metadata4">
    <rdf:RDF
       id="RDF5">
      <cc:Work
         rdf:about=""
         id="Work6">
        <dc:format
           id="format7">image/svg+xml</dc:format>
        <dc:type
           id="type9"
           rdf:resource="http://purl.org/dc/dcmitype/StillImage" />
      </cc:Work>
    </rdf:RDF>
  </metadata>
  <g
     inkscape:label="Layer 1"
     inkscape:groupmode="layer"
     id="layer1">
    <path
       style="fill:#aaa9ad"
       d="M 437.14485,243.16035 C 435.21985,242.97738 430.38235,242.31074 426.39485,241.67892 L 419.14485,240.53017 L 419.14485,237.19187 C 419.14485,235.35580 419.83924,232.11811 420.68794,229.99701 L 422.23102,226.14045 L 430.43794,226.45396 C 434.95174,226.62639 441.51457,226.30996 445.02201,225.75078 C 448.52945,225.19159 451.62684,224.96174 451.90509,225.24000 C 452.18335,225.51826 451.00763,227.34428 449.29238,229.29784 C 445.79032,233.28647 444.71581,236.43649 445.36004,240.82589 C 445.83678,244.07412 446.06784,244.00846 437.14485,243.16035 z M 412.39485,239.22952 C 408.58056,236.22341 408.26513,233.45781 411.10225,227.89659 C 413.22052,223.74444 414.71208,222.81309 419.24348,222.81309 L 422.17854,222.81309 L 419.57238,227.95611 C 417.65275,231.74432 417.05750,234.24688 417.31274,237.45611 C 417.71423,242.50417 416.91538,242.79224 412.39485,239.22952 z M 390.14485,235.67916 C 386.56985,235.19464 379.15057,234.01174 373.65755,233.05049 C 363.46386,231.26666 361.90218,230.24602 364.11365,226.81309 C 364.93370,225.54010 368.37036,225.35738 386.82174,225.60577 C 398.77973,225.76674 408.60917,225.99174 408.66495,226.10577 C 408.72073,226.21980 408.58309,228.67559 408.35909,231.56309 L 407.95182,236.81309 L 402.29834,236.68659 C 399.18892,236.61702 393.71985,236.16367 390.14485,235.67916 z "
       id="path1468"
       sodipodi:nodetypes="cccccccccccccccccccccccccccc" />
    <path
       style="fill:#f3b80d"
       d="M 256.80701,16.258778 C 252.47819,18.502433 245.65535,12.190020 243.37500,17.312500 C 243.88306,21.560959 251.16252,23.337657 254.54520,26.037661 C 264.11433,31.727853 274.62503,36.325674 281.02181,45.886752 C 286.02120,50.071557 287.85093,60.509513 295.62500,59.718750 C 301.97708,54.374008 310.26224,54.867559 318.03959,54.037169 C 323.40537,54.664365 321.69949,49.164300 318.59156,45.848139 C 307.43158,30.297118 288.75678,22.294486 270.70955,18.136537 C 266.73760,16.774109 264.17692,20.259718 261.16722,16.763167 L 258.90515,16.766216 L 256.80701,16.258778 z M 232.28125,23.312500 C 223.31116,26.367029 223.19976,38.041222 221.64348,45.907300 C 220.62255,54.666112 218.34302,65.434226 225.21875,72.437500 C 234.40952,65.599028 246.12365,60.139827 257.71875,63.406250 C 263.40014,63.543870 260.60897,55.347376 258.85638,52.189302 C 252.47436,41.448479 246.55966,28.216264 234.34375,23.218750 C 233.67610,23.349191 232.93261,23.062034 232.28125,23.312500 z M 217.29990,24.212167 C 203.07822,29.662758 189.17843,43.035238 179.79012,54.730005 C 175.80364,62.380125 171.80702,67.182118 168.58044,78.177259 C 167.55327,84.770838 164.30612,92.508010 168.90625,98.343750 C 175.07570,95.630183 174.82768,87.801195 181.01126,84.887638 C 185.01143,81.988261 190.10440,82.985074 194.37500,81.468750 C 198.56978,71.737355 197.54874,59.267824 204.18750,50.875000 C 207.92491,43.315934 214.49866,37.069563 217.71993,29.356220 C 219.17968,26.484630 219.78061,23.594264 217.29990,24.212167 z M 343.37500,243.53125 C 337.83243,243.89737 334.57686,251.59817 340.34375,254.34375 C 342.76039,254.07508 334.57556,259.29293 339.59375,262.93750 C 345.65414,263.97094 350.78190,267.62887 355.87500,270.53125 C 360.15913,269.90933 360.86979,266.22505 365.15625,269.43750 C 372.67592,269.02116 369.55600,258.90836 365.74298,255.53268 C 359.95366,249.71672 352.12169,242.93985 343.37500,243.53125 z M 184.25000,244.46875 C 177.31321,246.56764 171.20482,251.16362 164.78125,253.87500 C 159.67029,258.44770 152.27302,260.55425 145.98466,259.64643 C 142.44677,259.65985 135.92554,262.29021 138.39515,267.02015 C 137.89537,271.15697 139.66354,273.95704 142.46319,276.25397 C 141.80927,281.06777 145.93865,282.61260 148.94577,284.99780 C 154.42848,283.97819 150.82753,286.06937 152.34375,291.90625 C 156.83613,295.25881 159.54332,292.08699 161.12500,297.43750 C 165.93276,299.36120 164.30382,296.06047 171.75393,294.29663 C 177.03179,291.83966 178.98679,285.75740 185.03227,282.96977 C 187.39857,279.21344 189.28475,277.85761 191.03671,276.02226 C 191.70030,271.20227 193.49688,268.35492 196.50000,264.12500 C 200.45418,255.06935 194.92114,243.72729 184.25000,244.46875 z M 219.29905,279.82595 C 212.77822,279.89551 216.16064,286.09216 218.31369,289.88726 C 221.00311,295.23401 224.67760,303.11732 231.53125,302.34375 C 234.28520,298.34149 238.93204,298.02614 242.86083,296.73344 C 244.83479,292.86794 252.08603,288.03156 247.06250,284.50000 C 236.32431,283.09233 227.62904,283.66436 219.29905,279.82595 z "
       id="path1466"
       sodipodi:nodetypes="ccccccccccccccccccccccccccccccccccccccccccccccccccccc" />
    <path
       style="fill:#f10c08"
       d="M 199.77686,114.06689 C 190.44455,115.02176 189.79962,128.69925 195.34156,134.19189 C 199.02779,134.35297 197.81108,124.03730 203.96875,126.37281 C 211.35525,125.79389 222.23373,127.08602 227.53344,132.80811 C 231.59017,132.77878 234.11211,139.35454 238.87405,137.87401 C 243.14940,137.69281 234.59303,130.17785 232.72456,127.86110 C 224.82267,119.89427 216.40031,111.97757 204.14471,114.33039 C 203.42158,114.38912 200.49999,114.00816 199.77686,114.06689 z M 306.50000,123.18750 C 310.32934,126.66679 314.40141,132.26354 309.50000,136.71875 C 301.90337,144.99026 290.34775,146.93009 280.84375,151.87500 C 275.01359,155.56376 283.20366,157.27562 286.92678,156.62784 C 299.94353,157.14641 314.78101,156.70788 323.07225,145.29380 C 329.51610,139.66342 331.27406,128.68580 324.18421,122.78674 C 317.44580,120.34045 316.23782,121.71629 309.15353,121.03783 C 310.17436,122.19408 305.47917,122.03125 306.50000,123.18750 z M 243.40625,149.46875 C 237.74815,150.65099 236.41684,160.01385 241.00000,162.71875 C 233.79055,168.70673 231.17138,178.38001 225.74555,185.88019 C 222.60256,189.41411 220.93842,193.72140 218.81250,197.87500 C 214.45868,205.29761 213.08610,213.95951 211.02501,222.26048 C 209.16745,232.98825 210.63440,244.38121 214.75000,254.31250 C 214.86473,256.99024 216.93556,260.30136 217.37510,263.98948 C 222.53347,272.82397 228.15110,280.63584 237.75000,284.21875 C 244.50922,283.23760 251.63528,284.08103 258.15625,281.90625 C 258.25676,275.78595 249.80129,274.81951 247.06250,269.81250 C 241.10964,262.93197 237.38686,254.60783 236.47165,245.51575 C 234.04233,228.30863 233.24865,210.13395 239.00149,193.58552 C 241.38646,184.10165 247.29524,175.02909 247.56250,165.21875 C 252.28415,167.32221 255.72380,159.86851 256.12500,155.96875 C 255.96218,149.81044 248.09118,148.72781 243.40625,149.46875 z M 150.68750,158.09375 C 148.80081,162.71644 151.97544,166.17869 155.18750,169.65625 C 157.06734,172.36740 148.19782,173.92757 146.67640,177.56199 C 142.03592,182.41332 148.73360,183.98375 153.16633,183.99043 C 165.26846,184.18545 176.21393,186.79924 186.29214,178.55011 C 190.11997,177.69248 192.88451,176.48294 196.53296,173.67469 C 202.50773,170.70369 208.99339,168.08678 215.03935,166.16731 C 220.15585,161.81352 214.51567,160.04265 210.03125,160.62500 C 196.06407,160.13579 182.97412,171.61476 169.20918,167.84324 C 162.88604,165.54755 156.08636,163.02035 152.12597,156.54974 C 149.94244,153.57353 151.47249,157.06917 150.68750,158.09375 z M 334.78125,158.46875 C 322.27109,164.44700 309.41087,173.06017 294.34375,171.37500 C 287.88581,170.89832 281.55542,169.69902 275.37500,167.87500 C 271.23390,172.59325 279.32053,175.80207 282.43750,178.21875 C 294.13899,185.50900 308.82874,185.58719 321.81699,181.60620 C 328.64623,179.63125 337.01505,179.91941 342.43750,175.43750 C 343.90792,170.54500 331.85988,174.71568 335.21065,168.04738 C 335.42021,163.20530 344.56242,156.44383 335.25000,158.40625 L 335.00000,158.40625 L 334.78125,158.46875 z M 261.28125,175.21875 C 255.78104,177.32738 255.78606,182.99154 257.85603,187.62124 C 260.17005,192.52283 257.98895,201.67972 265.67496,201.34859 C 269.51764,202.38147 275.88484,201.71430 273.40625,196.28125 C 270.45214,188.61556 266.80723,181.27242 263.18750,173.90625 C 262.55208,174.34375 261.91667,174.78125 261.28125,175.21875 z "
       id="path1464"
       sodipodi:nodetypes="cccccccccccccccccccccccccccccccccccccccccccccccccccccccccc" />
    <path
       inkscape:export-ydpi="72.000000"
       inkscape:export-xdpi="72.000000"
       inkscape:export-filename="/users/brisset/pprz/savannah/paparazzi3/data/pictures/penguin_logo.png"
       style="fill:#090903"
       d="M 305.53492,316.37315 C 293.51334,313.35535 280.84972,303.35231 275.18380,292.39872 C 273.28023,288.71865 271.06735,285.16891 270.26627,284.51039 C 269.33408,283.74409 264.91298,283.31309 257.98461,283.31309 C 247.98930,283.31309 244.90973,284.01817 248.64484,285.45146 C 251.79360,286.65976 249.57428,293.81309 246.05064,293.81309 C 244.93753,293.81309 244.28250,294.22681 244.59501,294.73247 C 245.66205,296.45898 241.93905,299.00988 238.98498,298.57632 C 236.84136,298.26170 235.77491,298.72874 234.62318,300.48649 C 233.52875,302.15680 232.15226,303.74582 229.74340,303.74582 C 226.87079,303.74582 225.81202,302.05778 222.38417,297.56309 C 220.18202,294.67559 217.31480,289.52556 216.01256,286.11857 C 214.17527,281.31176 213.08480,279.78234 211.14485,279.29146 C 209.76985,278.94353 207.06985,277.98102 205.14485,277.15255 C 203.21985,276.32408 200.13500,274.99348 198.28964,274.19567 C 196.44427,273.39786 194.08177,273.01572 193.03963,273.34648 C 190.36669,274.19484 190.57712,271.44863 193.64904,265.39361 C 195.02173,262.68790 196.14485,259.38091 196.14485,258.04474 C 196.14485,253.69447 193.02522,248.66105 189.38677,247.14081 C 185.27804,245.42408 181.68410,246.35828 174.76435,250.94173 C 172.23589,252.61651 169.57068,254.07433 168.84165,254.18133 C 168.11262,254.28833 166.22567,255.39095 164.64843,256.63161 C 163.07120,257.87226 161.16428,258.65079 160.41085,258.36167 C 158.41378,258.84983 158.33779,259.58124 156.29666,260.25488 C 153.55935,261.15827 154.50715,261.02630 152.36256,260.96622 C 150.55915,261.15238 146.97498,261.28822 144.94765,261.86965 C 141.34456,262.90300 139.57710,262.20211 141.11453,260.34961 C 141.78599,259.54056 144.49196,259.08593 148.41631,259.12285 C 153.77377,259.17325 155.67865,258.64164 161.95106,255.34558 L 169.25084,251.50965 L 168.61124,246.39046 C 168.10123,242.30846 168.49927,239.75594 170.57583,233.79218 C 176.11819,217.87484 186.15453,207.92898 202.01886,202.63265 C 206.75074,201.05290 212.27578,199.49598 214.29672,199.17281 C 216.40114,198.83630 218.21694,197.88618 218.54636,196.94917 C 218.86271,196.04933 220.01311,193.96309 221.10279,192.31309 C 222.19247,190.66309 223.72671,188.18809 224.51222,186.81309 C 225.29773,185.43809 227.57331,181.88769 229.56907,178.92332 L 232.90973,172.95759 L 229.56083,171.06221 C 223.69241,167.07452 220.28082,166.56405 211.47419,168.35594 C 206.00446,169.46887 201.54092,171.20937 196.66386,174.13103 C 192.82432,176.43116 185.55734,180.93803 182.39484,182.49047 C 176.98181,185.14768 175.88300,185.31309 163.64484,185.31309 C 143.63831,185.31309 139.34459,182.53747 147.78869,175.06309 C 150.42946,172.72559 153.16491,170.81309 153.86747,170.81309 C 155.82101,170.81309 155.27090,169.09105 153.02826,167.89082 C 151.92826,167.30212 149.67212,163.28679 150.60485,163.08821 C 151.16304,163.18262 151.87313,163.84764 153.82444,165.89436 C 155.69284,167.85412 159.78278,169.74046 159.80779,170.27092 C 159.82517,170.63972 158.90735,171.92902 157.39485,172.26493 C 153.80642,173.06188 145.71269,177.96826 145.40480,179.53323 C 144.88226,182.18926 149.67255,183.29800 162.40019,183.46693 C 174.56306,183.62836 175.42976,183.50339 181.05915,180.77647 C 184.30613,179.20361 187.25529,177.44341 187.61282,176.86491 C 187.97036,176.28641 189.36132,175.81309 190.70387,175.81309 C 192.12332,175.81309 202.19707,168.12207 205.79807,167.52269 C 206.81380,167.35362 208.65735,166.65897 209.89485,165.97901 C 211.13235,165.29905 212.87958,165.44821 213.77758,164.70294 C 215.25880,163.47363 215.20177,163.29866 213.16305,162.81739 C 209.07959,161.85341 198.76681,163.55816 190.64485,166.53974 C 186.24484,168.15499 180.58026,169.58178 178.05688,169.71039 C 171.52184,170.04345 161.45883,166.49023 156.64485,162.14985 L 152.64485,158.54337 L 151.66774,161.76119 C 151.57313,166.36413 149.98939,164.09249 149.98939,158.89082 C 149.98939,156.14082 150.73884,155.10899 151.28884,155.10899 C 151.83884,155.10899 152.76667,155.33310 152.76667,155.86088 C 154.16577,158.53932 161.66940,165.12059 166.14484,166.27441 C 175.70764,168.73979 177.51615,168.68080 186.98930,165.59457 C 191.57874,164.09939 195.62875,162.93456 195.98930,163.00605 C 196.34985,163.07755 197.99485,162.55201 199.64485,161.83818 C 201.29485,161.12434 205.88780,160.48918 209.85141,160.42669 L 217.05797,160.31309 L 218.60141,156.27966 C 219.45030,154.06127 220.14485,151.49929 220.14485,150.58636 C 220.14485,148.67223 223.80684,145.81309 226.25846,145.81309 C 227.17620,145.81309 230.07107,147.58479 232.69151,149.75019 L 237.45595,153.68730 L 239.37297,151.25019 C 240.42734,149.90979 242.15734,148.81309 243.21742,148.81309 C 244.27750,148.81309 245.14484,148.41775 245.14484,147.93456 C 245.14484,146.60652 235.53190,138.71848 227.64484,133.57467 C 219.77107,128.43954 214.97414,126.82679 207.54984,126.81867 C 200.43570,126.81088 198.63278,128.89527 199.57965,136.03315 C 199.96419,138.93192 200.99341,142.09326 201.86682,143.05836 C 202.74022,144.02346 212.88730,152.71034 215.48556,153.36247 C 218.46321,154.10981 221.58447,156.28179 218.88214,156.27518 C 215.14978,156.26605 199.67536,145.19535 197.10066,140.05460 C 196.34547,138.54677 195.27870,136.70519 194.73005,135.96221 C 193.64114,134.48758 193.50702,134.55348 192.04280,127.52749 C 191.30290,123.97716 191.49162,122.05637 192.37270,120.47253 C 192.81355,119.06499 193.31512,118.08140 193.60941,117.43179 C 193.90371,116.83716 195.21283,115.70958 197.12925,114.68179 C 204.54399,110.70522 216.51320,113.18735 224.97011,120.45532 C 233.13699,127.47402 243.01780,138.01923 246.18868,143.10067 C 249.60299,148.57221 252.76605,151.52521 253.94727,150.34399 C 255.60779,148.68348 255.16390,136.70415 253.11240,127.81309 C 251.90680,122.58809 250.12517,114.48809 249.15323,109.81309 C 246.19147,95.567214 241.94580,79.826934 238.85864,71.647194 C 236.73162,66.011434 236.70621,65.988554 234.08099,67.346114 C 232.62939,68.096754 230.00285,70.349714 228.24423,72.352674 L 225.04673,75.994424 L 221.69467,74.403754 C 217.51811,72.421844 211.91627,72.362814 208.24363,74.262004 C 204.71781,76.085284 199.14485,82.357764 199.14485,84.502874 C 199.14485,85.957434 198.96594,85.967904 197.39485,84.605344 C 192.97429,80.771514 183.12189,81.816174 178.58341,86.599944 C 175.33523,90.023664 172.14484,96.090154 172.14484,98.842804 C 172.14484,101.68630 167.77239,101.20244 167.35802,98.313094 C 166.11785,89.665344 166.19546,83.937168 167.19961,83.937168 C 167.80499,83.937168 168.17647,88.275594 168.21513,90.063094 C 168.25379,91.850594 168.63312,94.203054 169.05809,95.290794 C 169.79387,97.174064 169.89602,97.150194 171.19761,94.790794 C 171.94937,93.428054 172.47106,91.840924 172.35691,91.263834 C 172.10328,89.981564 179.32796,82.785014 181.25689,82.398514 C 182.02026,82.245554 183.89846,81.606264 185.43066,80.977884 C 186.96286,80.349494 189.66286,80.064294 191.43066,80.344094 L 193.56220,79.770164 L 194.87130,75.082954 C 194.99585,71.909534 195.79416,66.838094 196.64533,63.813094 C 197.49650,60.788094 198.31433,57.795984 198.46271,57.163974 C 198.61110,56.531954 199.16741,55.406954 199.69896,54.663974 C 200.23050,53.920984 201.51469,51.738090 202.55271,49.813090 C 203.59073,47.888090 207.44480,42.038090 211.11731,36.813090 C 220.10431,24.026974 219.94184,24.349588 216.49673,26.131126 C 214.91919,26.946902 212.73216,27.771571 211.63666,27.963723 C 210.54117,28.155875 209.41985,28.553649 209.14485,28.847665 C 208.86985,29.141682 205.96344,31.140571 202.68616,33.289641 C 190.95291,40.983693 181.36653,51.484165 175.27632,63.313094 C 173.25330,67.242374 171.01395,71.751921 171.00009,70.332551 C 170.95686,65.906291 185.51985,42.824387 188.55553,42.806767 C 189.15465,42.803290 190.41590,41.445478 191.35830,39.789407 C 192.30070,38.133336 193.87570,36.484594 194.85830,36.125535 C 195.84090,35.766477 197.99485,34.417506 199.64485,33.127821 C 201.29485,31.838137 203.11630,30.452224 203.69251,30.048015 C 205.43871,28.823075 215.40959,23.952905 219.25943,22.444516 C 223.53240,20.770343 224.80896,17.355418 223.09885,12.173702 C 221.70439,7.9484475 223.07254,5.8130885 227.17417,5.8130885 C 229.29534,5.8130885 230.96852,7.0193205 234.19833,10.876983 L 238.43807,15.940876 L 244.77379,15.262378 C 251.16402,14.578042 265.48713,15.990127 265.48713,17.326716 C 265.48713,17.724614 254.65734,17.188172 250.39484,16.989630 C 245.28466,16.751604 242.98546,16.965240 243.64484,17.616826 C 244.19484,18.160326 250.71984,21.823347 258.14484,25.756873 C 265.56984,29.690399 272.76984,33.916860 274.14484,35.149009 C 277.69192,38.327576 288.99320,52.264990 289.34809,53.898554 C 289.51130,54.649844 290.62922,56.073504 291.83236,57.062244 C 293.96468,58.814594 294.12870,58.783844 298.33236,55.843714 C 302.35514,53.030094 303.29689,52.817114 312.35138,52.673334 C 321.33912,52.530604 321.98708,52.386834 321.10138,50.731881 C 319.87734,48.444753 319.88359,47.533597 321.11808,48.296551 C 321.65336,48.627374 322.82964,50.453932 323.73202,52.355568 C 324.63441,54.257204 325.77145,55.813094 326.25878,55.813094 C 327.70933,55.813094 327.26339,58.830374 325.72563,59.420464 C 324.94506,59.719994 323.05223,59.143374 321.51934,58.139074 C 317.14691,55.274434 305.94656,55.846824 299.85792,59.246074 L 295.15892,61.869494 L 290.89177,59.925584 C 287.41005,58.339474 285.75470,58.144184 281.89843,58.864614 C 275.70075,60.022464 271.18556,62.371714 268.32236,65.928234 C 267.04500,67.514904 265.60295,68.813094 265.11782,68.813094 C 263.71867,68.813094 259.05265,63.771264 259.61289,62.864794 C 260.53583,61.371434 257.31101,52.623354 253.55197,46.423124 C 244.53551,31.551240 236.67302,23.961742 231.60134,25.234652 C 227.71598,26.209814 225.24377,32.895851 223.42809,47.338954 C 222.10806,57.839434 222.07183,60.609214 223.18867,65.643424 L 224.50462,71.575204 L 229.27826,67.801864 C 234.65262,63.553674 247.05302,59.046484 248.21110,60.920304 C 248.70879,61.725584 249.01587,61.700014 249.30617,60.829104 C 249.61705,59.896464 250.67720,59.879354 253.92722,60.754494 C 259.05671,62.135724 265.44998,66.358079 260.47807,65.551249 L 251.00073,62.528024 L 251.64119,66.420554 C 251.99345,68.561454 253.35698,74.138094 254.67127,78.813094 C 255.98555,83.488094 258.70318,95.188094 260.71045,104.81309 C 265.73215,128.89264 268.65703,141.03309 270.07477,143.68217 C 271.24159,145.86238 271.49384,145.70666 279.08666,138.11913 C 285.33184,131.87829 288.87785,129.31192 296.77148,125.32000 C 305.29222,121.01096 307.60542,120.27840 313.65654,119.97274 C 319.93317,119.65569 321.10572,119.90499 324.84145,122.35084 C 328.18268,124.53841 329.14412,125.84933 329.66398,128.92638 C 330.02110,131.04017 330.00119,134.24191 329.61972,136.04136 C 328.82443,139.79296 324.21415,146.80806 320.03166,149.24314 C 318.32213,151.79253 314.16910,154.14642 312.42566,154.14642 C 308.87038,156.58999 296.55935,158.00360 284.09678,157.31042 L 271.23764,156.59517 L 270.58339,159.20190 C 269.57349,163.22568 270.66510,164.70411 276.67891,167.45732 C 281.66778,169.74130 283.60043,170.01811 295.53175,170.15763 C 304.84689,170.26656 309.27528,169.94156 310.32737,169.07177 C 311.15319,168.38904 331.04708,158.73876 334.11598,158.51745 C 335.67468,158.40505 337.79151,157.20006 339.68085,157.24017 C 344.44765,157.34136 344.83641,159.47250 340.54948,162.00186 C 336.49024,164.39687 334.18723,168.81850 336.32284,170.11674 C 337.04994,170.55875 340.00734,172.25535 342.89484,173.88697 C 350.48527,178.17604 349.82495,179.34068 339.89520,179.17755 C 335.35750,179.10301 331.29666,179.57678 330.74666,179.98149 C 330.19666,180.38621 326.71984,181.06169 323.14484,181.73144 C 319.56984,182.40119 314.75807,183.36855 312.45202,183.88113 C 299.61899,186.73360 284.44293,182.00088 272.28478,171.35477 L 268.90629,168.39646 L 265.92471,171.73343 C 264.28484,173.56876 263.37619,175.35000 263.90549,175.69174 C 264.81049,176.27606 267.18161,181.03914 272.04992,192.05219 C 273.20213,194.65870 274.14484,197.70348 274.14484,198.81837 C 274.14484,201.11739 275.06191,201.59353 292.62301,208.41218 C 299.21100,210.97018 305.63304,213.06309 306.89421,213.06309 C 308.27437,213.06309 311.29249,211.07205 314.47532,208.06186 C 318.62886,204.13361 320.88759,202.81953 325.00333,201.93686 C 334.18942,199.96679 341.35117,200.93009 349.85826,205.27998 C 353.42643,207.10447 361.14484,215.37534 361.14484,217.37442 C 361.14484,218.07829 362.49484,218.95069 364.14484,219.31309 C 365.79484,219.67549 367.14484,220.61125 367.14484,221.39255 C 367.14484,222.96058 372.64462,223.43148 373.56501,221.94225 C 373.86103,221.46329 375.54696,220.78267 377.31153,220.42975 C 380.71040,219.74998 391.49025,209.45088 392.65979,205.76600 C 394.91028,204.80839 397.49453,208.14155 396.99161,217.12133 L 396.64484,223.31309 L 403.99717,223.12547 C 409.22254,222.99212 411.87714,222.46034 413.17340,221.28724 C 414.78839,219.82569 415.66433,219.78283 420.82107,220.91304 C 424.02414,221.61506 426.93990,222.62516 427.30054,223.15770 C 428.38629,224.76102 452.87551,223.21958 455.69791,221.37027 C 459.83716,218.65813 470.72282,220.05619 474.21661,222.74146 C 474.69608,223.20847 480.16019,226.81160 480.10940,232.99735 C 480.05506,239.61566 475.15007,246.51913 468.51182,249.32021 C 465.14675,250.74014 463.60648,250.79593 456.64484,249.75010 C 452.24484,249.08909 448.04660,248.07310 447.31543,247.49233 C 445.23346,245.83864 427.30542,243.81955 420.51466,244.47397 C 414.57890,245.04599 414.29523,244.96456 411.57044,241.90645 C 410.02272,240.16940 408.15045,238.98070 407.40984,239.26489 C 406.66923,239.54909 402.59694,239.29949 398.36031,238.71023 C 391.39012,237.74077 390.56161,237.80608 389.65109,239.39677 C 385.71620,246.27105 378.71193,251.50621 370.48600,253.72123 L 366.33840,254.83806 L 368.24162,258.77727 C 370.60394,263.66670 370.60645,265.65484 368.25417,268.71440 C 366.76844,270.64686 365.81419,270.99696 363.36686,270.50749 C 361.20270,270.07466 360.16453,270.31939 359.76668,271.35618 C 358.96893,273.43507 357.80686,273.19077 352.94497,269.92203 C 347.86086,266.50389 341.68637,263.81309 338.92701,263.81309 C 337.11479,263.81309 332.59268,265.89958 329.29731,268.25620 C 328.55617,268.78622 327.06971,269.35417 325.99407,269.51833 C 324.91843,269.68248 322.82482,270.42840 321.34160,271.17592 C 319.85838,271.92344 317.65804,272.44971 316.45195,272.34540 C 315.24586,272.24109 310.07903,275.43566 304.70797,276.08054 C 301.86951,276.42134 300.73565,281.89882 302.19804,288.20567 C 304.27819,297.17678 310.60180,309.28245 315.09336,312.89196 C 317.32125,314.68234 318.93729,316.35397 318.68456,316.60670 C 317.60322,317.68804 310.25281,317.55750 305.53492,316.37315 z M 237.94155,296.31309 C 240.35000,296.31309 241.74309,295.70964 242.52350,294.32831 C 243.14024,293.23668 244.43234,291.74866 245.39484,291.02160 C 247.45431,289.46591 247.64822,287.47575 245.88307,286.01080 C 245.18910,285.43486 241.47660,284.72483 237.63307,284.43296 C 227.48600,283.66240 221.74536,282.77693 221.15909,281.89189 C 219.99077,280.56294 217.14485,281.07233 217.14485,282.54438 C 217.14485,285.87683 221.89744,294.61832 225.60903,298.11265 L 229.64484,301.91222 L 232.06290,299.11265 C 233.84298,297.05172 235.39398,296.31309 237.94155,296.31309 z M 232.14484,281.81309 C 232.14484,281.26309 231.46984,280.81309 230.64484,280.81309 C 229.81984,280.81309 229.14484,280.36309 229.14484,279.81309 C 229.14484,279.26309 228.55812,278.81309 227.84101,278.81309 C 225.90658,278.81309 219.81215,272.16043 220.59145,270.89950 C 220.96074,270.30197 218.37897,267.11309 217.14485,263.81309 C 215.91073,260.51309 214.67148,257.81309 214.39096,257.81309 C 211.03777,257.81309 201.14485,268.69810 201.14485,272.38755 C 201.14485,273.82997 205.18836,275.46871 210.89910,276.34071 C 213.23894,276.69800 214.74508,278.51999 215.60565,278.18976 C 216.46622,277.85953 217.80960,278.11990 218.59095,278.76835 C 219.37229,279.41681 221.67772,280.15402 223.71412,280.40660 C 225.75052,280.65918 228.14301,281.29028 229.03075,281.80905 C 231.14453,283.04428 232.14484,283.04557 232.14484,281.81309 z M 248.14484,281.38463 C 252.81984,281.09579 256.75734,280.84903 256.89484,280.83628 C 257.03234,280.82352 257.14484,280.43143 257.14484,279.96496 C 257.14484,279.49850 255.27716,278.27463 252.99443,277.24527 C 248.87965,275.38976 241.76666,266.94407 241.14484,264.30663 C 238.65755,261.55593 233.14824,241.79896 233.14621,228.13545 C 233.14417,214.48414 234.71687,205.50953 240.26088,187.53555 C 243.01112,178.61909 245.34761,169.74640 245.45308,167.81845 C 245.62375,164.69854 245.37106,164.31309 243.15501,164.31309 C 241.19357,164.31309 239.98264,165.48027 237.44887,169.81309 C 231.20028,180.49837 226.63305,187.98379 225.64484,189.15918 C 225.09484,189.81336 223.52297,192.59061 222.15180,195.33084 C 220.78062,198.07108 219.15006,200.98809 218.52835,201.81309 C 217.90663,202.63809 216.21601,207.84964 214.77140,213.39431 C 211.29553,226.73541 211.28700,236.22233 214.74002,248.31309 C 216.15370,253.26309 217.65328,258.66309 218.07243,260.31309 C 219.84113,267.27569 224.20951,274.59137 228.29912,277.43960 C 234.60998,281.83483 236.17187,282.61030 237.97926,282.24575 C 238.89533,282.06098 243.46984,281.67348 248.14484,281.38463 z M 265.85386,279.81309 C 267.14053,279.81309 267.28194,278.93404 266.69842,274.56309 C 266.31293,271.67559 265.69318,263.98818 265.32119,257.47995 C 264.74443,247.38926 264.35901,245.43818 262.70371,244.22995 C 259.92681,242.20305 247.81328,242.38438 241.79111,244.54299 L 236.93737,246.28278 L 237.53565,250.64773 C 238.33644,256.49013 243.72052,266.42735 248.63863,271.14017 C 250.83522,273.24506 254.76664,275.88536 257.37513,277.00751 C 260.10387,278.18138 261.84159,279.49474 261.46729,280.10036 C 261.05714,280.76400 261.46188,280.90541 262.56258,280.48303 C 263.52279,280.11456 265.00386,279.81309 265.85386,279.81309 z M 313.39484,271.65115 C 314.90734,271.05676 316.14484,270.27757 316.14484,269.91961 C 316.14484,269.56165 314.74167,267.56649 313.02668,265.48591 C 310.63099,262.57952 309.30046,261.77372 307.28407,262.00807 C 303.94821,262.39577 301.73698,266.67965 302.67299,270.94127 C 303.30757,273.83047 303.54474,273.96348 306.99463,273.36504 C 309.00224,273.01678 311.88234,272.24553 313.39484,271.65115 z M 359.10583,268.46426 C 360.58236,266.07517 351.23898,260.09129 351.23898,259.63296 C 351.23898,259.17462 341.56896,255.14642 340.86510,255.14642 C 340.00912,255.14642 339.71148,256.22674 339.96624,258.40895 C 340.30574,261.31707 340.76317,261.74176 344.17726,262.31857 C 346.28383,262.67447 350.17438,264.50634 352.82292,266.38938 C 357.94959,270.03430 358.24618,269.85520 359.10583,268.46426 z M 366.83463,267.56309 C 367.34870,266.87559 367.69734,265.63809 367.60938,264.81309 C 367.52143,263.98809 367.38093,262.57426 367.29715,261.67124 C 367.09375,259.47866 358.33552,249.81309 356.55217,249.81309 C 355.77814,249.81309 355.14315,249.47559 355.14109,249.06309 C 355.13903,248.65059 353.05876,247.45816 350.51828,246.41324 C 345.08874,244.18003 341.37108,244.97487 339.47708,248.77386 C 337.88800,251.96123 338.41105,252.59952 343.70420,253.93235 C 346.67340,254.68001 350.55663,255.89096 353.31490,258.00041 C 355.14637,259.40107 358.44484,262.40652 360.64484,264.67919 C 365.02408,269.20308 365.45739,269.40496 366.83463,267.56309 z M 377.03558,248.87156 C 379.26385,247.67903 387.14484,239.14862 387.14484,237.92927 C 387.14484,237.41859 385.00734,236.74901 382.39484,236.44131 C 379.78234,236.13361 375.28234,235.59916 372.39484,235.25364 C 368.87836,234.83285 366.05475,235.71385 364.99113,236.37340 C 363.63220,236.37340 362.55764,238.37390 360.85703,242.06309 L 358.43693,247.31309 L 360.98926,249.92813 C 363.52020,252.52126 363.59082,252.53167 369.42130,251.17152 C 372.65515,250.41711 376.08158,249.38213 377.03558,248.87156 z M 468.46524,246.88138 C 472.04624,245.51988 477.01453,239.84091 478.14840,235.81309 C 479.50357,230.99917 478.52247,230.71116 476.72101,227.31309 L 474.30712,224.31309 L 475.40347,228.45407 C 477.46032,236.22289 472.53359,243.97016 463.64484,246.94449 C 461.74357,247.58069 461.75269,247.61865 463.82974,247.71341 C 465.03144,247.76823 467.11741,247.39382 468.46524,246.88138 z M 445.36003,240.82589 C 444.71580,236.43649 445.79031,233.28647 449.29237,229.29784 C 451.00762,227.34428 452.18334,225.51826 451.90508,225.24000 C 451.62683,224.96174 448.52944,225.19159 445.02200,225.75078 C 441.51456,226.30996 434.95173,226.62639 430.43793,226.45396 L 422.23101,226.14045 L 420.68793,229.99701 C 419.83923,232.11811 419.14484,235.35580 419.14484,237.19187 L 419.14484,240.53017 L 426.39484,241.67892 C 433.45606,242.79776 437.96183,243.32638 443.22165,243.65305 C 445.53901,243.79698 445.75431,243.51233 445.36003,240.82589 z M 468.72453,241.92762 C 475.17746,237.99263 475.89535,227.87304 469.90039,225.35235 C 467.10203,224.17573 466.43108,224.26209 463.50586,226.17545 C 460.04381,228.43994 456.14484,234.37727 456.14484,237.38479 C 456.14484,240.09401 460.15375,243.81358 463.06915,243.80935 C 464.48578,243.80730 467.03070,242.96052 468.72453,241.92762 z M 450.02176,240.63856 C 450.76867,239.44257 451.56443,236.40507 451.79011,233.88856 L 452.20044,229.31309 L 449.67264,232.11885 C 447.87040,234.11927 447.14484,236.05674 447.14484,238.86885 C 447.14484,243.30379 448.02079,243.84262 450.02176,240.63856 z M 417.31273,237.45611 C 417.05749,234.24688 417.65274,231.74432 419.57237,227.95611 L 422.17853,222.81309 L 419.24347,222.81309 C 414.71207,222.81309 413.22051,223.74444 411.10224,227.89659 C 408.26512,233.45781 408.58055,236.22341 412.39484,239.22952 C 416.91537,242.79224 417.71422,242.50417 417.31273,237.45611 z M 337.06515,238.22830 C 341.96013,236.26972 344.28067,232.89975 343.96474,228.20852 C 343.52848,221.73076 336.44432,218.53206 332.56915,223.06309 C 327.67388,228.78688 326.74855,234.41680 330.14484,237.81309 C 332.54432,240.21257 332.16314,240.18970 337.06515,238.22830 z M 335.64768,234.82204 C 335.30012,233.72696 335.05949,232.26446 335.49295,231.57204 C 336.23733,229.94689 336.29296,229.56772 336.61841,228.82945 C 338.53297,227.93902 340.07279,226.49339 341.17453,229.39117 C 342.04468,231.67985 341.85762,232.48992 340.00313,234.46394 C 337.30863,237.33209 336.46632,237.40135 335.64768,234.82204 z M 407.73726,232.18491 C 407.96126,229.29741 408.72072,226.21980 408.66494,226.10577 C 408.60916,225.99174 398.77972,225.76674 386.82173,225.60577 C 368.37035,225.35738 364.93369,225.54010 364.11364,226.81309 C 361.90217,230.24602 363.46385,231.26666 373.65754,233.05049 C 387.81848,235.52858 395.79347,236.54105 402.29833,236.68659 L 407.95181,236.81309 L 407.73726,232.18491 z M 363.25615,223.56309 C 363.95758,222.20768 363.75401,221.81309 362.35331,221.81309 C 358.67478,221.81309 356.82069,226.08894 359.38660,228.65485 C 360.37561,229.64386 360.80362,229.43014 361.48943,227.60485 C 361.96302,226.34438 362.75804,224.52559 363.25615,223.56309 z M 393.61538,220.56309 C 394.63025,216.07379 394.81763,213.27248 394.23712,211.26827 C 393.71723,209.47338 392.84738,210.05397 387.12061,216.01827 L 380.59639,222.81309 L 386.85156,222.81309 C 392.52103,222.81309 393.15436,222.60241 393.61538,220.56309 z M 271.70590,197.06309 C 270.99848,194.09639 263.07053,176.81309 262.41712,176.81309 C 262.19928,176.81309 260.98483,177.59472 259.71833,178.55004 L 257.41561,180.28699 L 259.28022,185.70659 C 260.30576,188.68737 261.15173,192.29324 261.16015,193.71964 C 261.18662,198.20177 263.00088,199.59304 269.00325,199.73414 C 272.17106,199.80861 272.32444,199.65703 271.70590,197.06309 z M 259.50498,197.78598 C 260.01654,197.27471 259.07548,192.16860 257.08289,184.64387 L 256.11125,180.97464 L 250.27037,180.94670 L 244.42950,180.91877 L 242.61438,186.91370 C 241.61606,190.21092 240.42701,193.13870 239.97205,193.41988 C 239.51708,193.70106 239.14484,194.92978 239.14484,196.15036 C 239.14484,198.29538 239.47647,198.36865 249.06120,198.34134 C 254.51520,198.32580 259.21490,198.07589 259.50498,197.78598 z M 328.37688,178.70356 C 329.87950,178.08853 333.10610,177.38891 334.94052,177.04941 C 336.10015,177.35266 338.86462,176.56625 340.07038,176.47543 C 341.98631,176.33110 342.43114,175.32661 340.51514,174.66389 C 340.14847,174.63284 338.18234,173.85233 336.39484,173.42718 C 332.48925,172.49825 332.16368,170.16045 335.12972,164.34275 C 336.22140,162.20147 337.95837,160.17331 337.74523,159.96017 C 337.02503,159.23998 327.66462,162.16244 324.89484,164.06264 C 323.38234,165.10029 320.87057,165.58426 319.31314,166.69325 C 313.29376,170.97943 306.54539,172.81389 296.85782,172.79747 C 291.79068,172.78888 285.05734,172.17295 281.89484,171.42875 C 278.73234,170.68455 276.14484,170.44496 276.14484,170.89633 C 276.14484,172.07309 284.43247,177.61044 289.64405,179.91577 C 296.92187,183.13509 304.35550,183.61803 315.64484,181.60496 C 321.14484,180.62422 326.87426,179.31859 328.37688,178.70356 z M 254.14484,156.41976 C 254.14484,153.41400 252.26613,151.86931 247.71145,151.13019 C 242.87018,150.34456 240.14484,152.76139 240.14484,157.84027 C 240.14484,161.40374 240.31027,161.58393 244.14484,162.19710 C 246.34484,162.54889 248.15803,163.39391 248.17415,164.07491 C 248.22880,166.38321 254.14484,158.79812 254.14484,156.41976 z M 307.45170,153.72891 C 321.17774,149.22297 331.03373,135.30027 326.58608,126.69946 C 324.67181,122.99767 321.65426,121.81309 314.13876,121.81309 C 308.33326,121.81309 305.39553,123.12237 309.05424,124.07915 C 311.98826,124.84641 314.42073,129.28051 313.70222,132.55186 C 312.68161,137.19864 304.22648,144.70033 297.64484,146.79855 C 295.44484,147.49990 293.19484,148.39843 292.64484,148.79528 C 292.09484,149.19213 289.28234,150.34738 286.39484,151.36250 C 277.93419,154.33691 279.50271,155.81309 291.12384,155.81309 C 298.53973,155.81309 302.73355,155.27777 307.45170,153.72891 z M 286.21947,148.43041 C 299.84778,143.53933 301.56156,142.67361 306.31683,138.27814 C 308.67612,136.09736 309.95430,136.23094 311.19354,134.50239 C 312.01234,132.15203 311.00870,128.45746 309.89676,127.06309 C 308.48400,125.29148 303.11479,125.61570 301.26087,126.24630 C 300.24703,126.75655 292.40665,129.37530 287.72024,132.99761 C 285.47877,134.73013 281.22974,139.00038 278.27795,142.48706 C 273.81840,147.75473 273.12059,149.07895 274.15040,150.31979 C 275.76841,152.26937 275.33267,152.33758 286.21947,148.43041 z M 232.99784,130.39234 C 219.90583,118.33007 216.42981,116.04234 209.55657,114.96451 C 200.12555,113.48558 193.56890,116.15855 193.56890,122.30663 C 193.56890,123.90970 193.89028,128.02426 194.30609,129.83894 C 193.96476,133.09294 195.72573,134.70897 196.60254,131.94639 C 196.93347,130.90373 198.12880,128.98470 199.25883,127.68187 C 201.10450,125.55398 202.09300,125.32352 208.97914,125.41563 C 217.25858,125.52638 220.87005,126.81350 231.14484,133.31547 C 238.04493,137.68189 239.10119,136.01563 232.99784,130.39234 z M 159.89484,298.12376 C 158.93235,297.87224 158.14485,297.06150 158.14485,296.32212 C 158.14485,295.58275 156.45735,294.15324 154.39485,293.14545 C 152.33235,292.13765 150.60135,290.63809 150.54819,289.81309 C 150.37279,287.09094 148.98838,284.89821 147.05839,284.28565 C 144.12618,283.35500 142.14485,280.91783 142.14485,278.24166 C 142.14485,276.90595 141.67312,275.81309 141.09657,275.81309 C 139.77843,275.81309 137.26999,269.98584 137.68317,267.88356 C 136.45383,263.44432 140.35809,261.46738 140.40017,261.05488 C 140.44225,260.64238 140.86428,261.70398 141.33801,261.70398 C 141.81174,261.70398 138.24714,264.41601 139.37581,267.38524 C 138.84038,270.18616 140.92535,275.06678 142.29556,274.21994 C 142.76267,273.93126 144.97886,275.16588 144.55725,277.36910 C 143.81019,281.27302 146.11819,283.35139 150.75672,282.95176 C 154.49986,282.62927 154.92007,283.29900 152.59002,285.87367 C 152.26128,286.81755 151.23960,287.80906 153.34002,290.04235 C 155.26687,292.09107 156.13683,292.35600 158.64485,291.65783 C 160.29484,291.19851 162.31691,291.07346 163.13832,291.37994 C 164.31611,291.81939 164.10473,292.34212 162.13832,293.85290 C 159.82539,295.62991 162.93467,296.79830 166.07229,296.21155 C 166.56685,296.11906 167.78917,295.32567 168.65419,295.65761 C 170.02239,296.18264 170.14542,295.94252 168.86491,296.75233 C 167.33048,297.72272 162.85564,298.89750 159.89484,298.12376 z M 167.69820,295.89942 C 167.38762,295.39689 168.45361,294.40141 170.06706,293.68723 C 171.68051,292.97305 172.74542,291.97582 172.43353,291.47117 C 172.12164,290.96652 172.49159,290.76480 173.25565,291.02291 C 174.01971,291.28101 175.61144,290.18918 176.79284,288.59662 C 178.24448,286.63976 180.00812,287.46855 180.06590,286.36395 C 180.17433,284.29063 186.67308,280.22848 186.67308,282.23288 C 186.67308,284.06884 169.87148,297.03294 167.66227,297.03294 C 167.26711,297.03294 168.00877,296.40194 167.69820,295.89942 z M 185.58453,282.35558 C 185.58453,281.43892 190.02308,274.20994 191.04142,273.03579 C 193.28809,270.44536 192.73666,274.19492 190.56676,277.29287 C 188.72404,279.92373 185.58453,284.68897 185.58453,282.35558 z M 166.15042,84.063094 C 166.16033,80.953664 170.38583,69.372153 171.41354,69.372153 C 172.32999,69.372153 169.78894,79.328544 168.49014,84.063094 C 167.86760,86.332424 166.14319,86.332424 166.15042,84.063094 z M 169.62653,73.218549 C 169.65447,71.849879 171.18192,69.050463 171.76947,69.638013 C 172.55722,70.425763 171.14692,73.813094 170.03785,73.813094 C 169.54670,73.813094 169.61810,73.631049 169.62653,73.218549 z M 315.57427,44.053346 C 312.62453,40.103322 306.14484,33.356248 306.14484,34.234815 C 306.14484,34.519716 304.52730,33.655121 302.55030,32.313494 C 300.57330,30.971867 297.42330,29.320029 295.55030,28.642743 C 293.67730,27.965456 292.14484,27.025155 292.14484,26.553185 C 292.14484,26.081214 291.76140,25.932037 291.29274,26.221680 C 290.82409,26.511323 288.80616,25.914992 286.80844,24.896501 C 284.81073,23.878009 281.93168,22.809443 280.41054,22.521909 C 278.88941,22.234375 274.49484,21.241180 270.64484,20.314808 C 266.79484,19.388436 262.63234,18.438005 261.39484,18.202740 C 258.74791,17.699524 258.35137,15.809913 260.89484,15.820096 C 263.35481,15.829944 278.03786,19.419815 281.64484,20.893281 C 283.29484,21.567312 285.41103,22.268932 286.34748,22.452438 C 289.88315,23.145285 304.79407,30.650932 308.35343,33.529489 C 313.09862,37.367051 322.40276,48.414051 321.26130,49.119510 C 320.78114,49.416267 317.11046,46.110487 315.57427,44.053346 z "
       id="path1462"
       sodipodi:nodetypes="ccccccccccccccccccccccccccccccccccccccccccccccccsccccccccccccccccccccccccccccccccccccccccccccccccccccccccccccccccccccccccccccccccccccccccccccccccccccccccccccccccccccccccccccccccccccccccccccccccccccccccccccccccccccccccccccccccccccccccccccccccccccccccccccccccccccccccccccccccccccccccccccccccccccccccccccccccccccccccccccccccccccccccccccccccccccccccccccccccccccccccccccccccccccccccccccccccccccccccccccccccccccccccccccccccccccccccccccccccccccccccccccccccccccccccccccccccccccccccccccccccccccccccccccccccccccccccccccccccccccccccccccccccccccccccccc" />
  </g>
</svg>
