<?xml version="1.0" encoding="UTF-8" standalone="no"?>
<!-- Created with Inkscape (http://www.inkscape.org/) -->

<svg
   xmlns:dc="http://purl.org/dc/elements/1.1/"
   xmlns:cc="http://creativecommons.org/ns#"
   xmlns:rdf="http://www.w3.org/1999/02/22-rdf-syntax-ns#"
   xmlns:svg="http://www.w3.org/2000/svg"
   xmlns="http://www.w3.org/2000/svg"
   xmlns:sodipodi="http://sodipodi.sourceforge.net/DTD/sodipodi-0.dtd"
   xmlns:inkscape="http://www.inkscape.org/namespaces/inkscape"
   inkscape:export-ydpi="12"
   inkscape:export-xdpi="12"
   inkscape:export-filename="/home/gautier/dev/paparazzi/data/pictures/penguin_icon_rep.png"
   width="360"
   height="360"
   id="svg2"
   sodipodi:version="0.32"
   inkscape:version="0.48.5 r10040"
   sodipodi:docname="penguin_logo_rep.svg"
   version="1.1">
  <defs
     id="defs3" />
  <sodipodi:namedview
     id="base"
     pagecolor="#ffffff"
     bordercolor="#666666"
     borderopacity="1.0"
     inkscape:pageopacity="0.0"
     inkscape:pageshadow="2"
     inkscape:zoom="1.2277142"
     inkscape:cx="94.054689"
     inkscape:cy="180.73241"
     inkscape:document-units="px"
     inkscape:current-layer="layer1"
     inkscape:window-width="1293"
     inkscape:window-height="748"
     inkscape:window-x="-2"
     inkscape:window-y="-3"
     showgrid="false"
     fit-margin-top="10"
     fit-margin-left="10"
     fit-margin-right="10"
     fit-margin-bottom="10"
     inkscape:window-maximized="1" />
  <metadata
     id="metadata4">
    <rdf:RDF>
      <cc:Work
         rdf:about="">
        <dc:format>image/svg+xml</dc:format>
        <dc:type
           rdf:resource="http://purl.org/dc/dcmitype/StillImage" />
        <dc:title></dc:title>
      </cc:Work>
    </rdf:RDF>
  </metadata>
  <g
     inkscape:label="Layer 1"
     inkscape:groupmode="layer"
     id="layer1"
     transform="translate(6.1774787,33.230913)">
    <path
       style="fill:#aaa9ad"
       d="m 303.52355,242.5844 c -1.925,-0.18297 -6.7625,-0.84961 -10.75,-1.48143 l -7.25,-1.14875 0,-3.3383 c 0,-1.83607 0.69439,-5.07376 1.54309,-7.19486 l 1.54308,-3.85656 8.20692,0.31351 c 4.5138,0.17243 11.07663,-0.144 14.58407,-0.70318 3.50744,-0.55919 6.60483,-0.78904 6.88308,-0.51078 0.27826,0.27826 -0.89746,2.10428 -2.61271,4.05784 -3.50206,3.98863 -4.57657,7.13865 -3.93234,11.52805 0.47674,3.24823 0.7078,3.18257 -8.21519,2.33446 z m -24.75,-3.93083 c -3.81429,-3.00611 -4.12972,-5.77171 -1.2926,-11.33293 2.11827,-4.15215 3.60983,-5.0835 8.14123,-5.0835 l 2.93506,0 -2.60616,5.14302 c -1.91963,3.78821 -2.51488,6.29077 -2.25964,9.5 0.40149,5.04806 -0.39736,5.33613 -4.91789,1.77341 z m -22.25,-3.55036 c -3.575,-0.48452 -10.99428,-1.66742 -16.4873,-2.62867 -10.19369,-1.78383 -11.75537,-2.80447 -9.5439,-6.2374 0.82005,-1.27299 4.25671,-1.45571 22.70809,-1.20732 11.95799,0.16097 21.78743,0.38597 21.84321,0.5 0.0558,0.11403 -0.0819,2.56982 -0.30586,5.45732 l -0.40727,5.25 -5.65348,-0.1265 c -3.10942,-0.0696 -8.57849,-0.52292 -12.15349,-1.00743 z"
       id="path1468"
       sodipodi:nodetypes="cccccccccccccccccccccccccccc"
       inkscape:connector-curvature="0" />
    <path
       style="fill:#f3b80d"
       d="m 123.18571,15.682824 c -4.32882,2.243655 -11.15166,-4.068758 -13.43201,1.053722 0.50806,4.248459 7.78752,6.025157 11.1702,8.725161 9.56913,5.690192 20.07983,10.288013 26.47661,19.849091 4.99939,4.184805 6.82912,14.622761 14.60319,13.831998 6.35208,-5.344742 14.63724,-4.851191 22.41459,-5.681581 5.36578,0.627196 3.6599,-4.872869 0.55197,-8.18903 -11.15998,-15.551021 -29.83478,-23.553653 -47.88201,-27.711602 -3.97195,-1.362428 -6.53263,2.123181 -9.54233,-1.37337 l -2.26207,0.003 -2.09814,-0.507438 z m -24.525763,7.053722 c -8.97009,3.054529 -9.08149,14.728722 -10.63777,22.5948 -1.02093,8.758812 -3.30046,19.526926 3.57527,26.5302 9.190773,-6.838472 20.904903,-12.297673 32.500003,-9.03125 5.68139,0.13762 2.89022,-8.058874 1.13763,-11.216948 -6.38202,-10.740823 -12.29672,-23.973038 -24.51263,-28.970552 -0.66765,0.130441 -1.411143,-0.156716 -2.062503,0.09375 z m -14.98135,0.899667 c -14.22168,5.450591 -28.12147,18.823071 -37.50978,30.517838 -3.98648,7.65012 -7.9831,12.452113 -11.20968,23.447254 -1.02717,6.593579 -4.27432,14.330751 0.32581,20.166491 6.16945,-2.713567 5.92143,-10.542555 12.10501,-13.456112 4.00017,-2.899377 9.09314,-1.902564 13.36374,-3.418888 4.19478,-9.731395 3.17374,-22.200926 9.8125,-30.59375 3.73741,-7.559066 10.31116,-13.805437 13.53243,-21.51878 1.45975,-2.87159 2.06068,-5.761956 -0.42003,-5.144053 z M 209.7537,242.9553 c -5.54257,0.36612 -8.79814,8.06692 -3.03125,10.8125 2.41664,-0.26867 -5.76819,4.94918 -0.75,8.59375 6.06039,1.03344 11.18815,4.69137 16.28125,7.59375 4.28413,-0.62192 4.99479,-4.3062 9.28125,-1.09375 7.51967,-0.41634 4.39975,-10.52914 0.58673,-13.90482 -5.78932,-5.81596 -13.62129,-12.59283 -22.36798,-12.00143 z m -159.125003,0.9375 c -6.93679,2.09889 -13.04518,6.69487 -19.46875,9.40625 -5.11096,4.5727 -12.50823,6.67925 -18.79659,5.77143 -3.5378896,0.0134 -10.0591196,2.64378 -7.5895096,7.37372 -0.49978,4.13682 1.26839,6.93689 4.06804,9.23382 -0.65392,4.8138 3.4754596,6.35863 6.4825796,8.74383 5.48271,-1.01961 1.88176,1.07157 3.39798,6.90845 4.49238,3.35256 7.19957,0.18074 8.78125,5.53125 4.80776,1.9237 3.17882,-1.37703 10.62893,-3.14087 5.27786,-2.45697 7.23286,-8.53923 13.27834,-11.32686 2.3663,-3.75633 4.25248,-5.11216 6.00444,-6.94751 0.66359,-4.81999 2.46017,-7.66734 5.46329,-11.89726 3.95418,-9.05565 -1.57886,-20.39771 -12.25,-19.65625 z m 35.04905,35.3572 c -6.52083,0.0696 -3.13841,6.26621 -0.98536,10.06131 2.68942,5.34675 6.36391,13.23006 13.21756,12.45649 2.753953,-4.00226 7.400793,-4.31761 11.329583,-5.61031 1.97396,-3.8655 9.2252,-8.70188 4.20167,-12.23344 -10.73819,-1.40767 -19.433463,-0.83564 -27.763453,-4.67405 z"
       id="path1466"
       sodipodi:nodetypes="ccccccccccccccccccccccccccccccccccccccccccccccccccccc"
       inkscape:connector-curvature="0" />
    <path
       style="fill:#f10c08"
       d="m 66.155557,113.49094 c -9.33231,0.95487 -9.97724,14.63236 -4.4353,20.125 3.68623,0.16108 2.46952,-10.15459 8.62719,-7.81908 7.3865,-0.57892 18.26498,0.71321 23.56469,6.4353 4.05673,-0.0293 6.578673,6.54643 11.340613,5.0659 4.27535,-0.1812 -4.28102,-7.69616 -6.149493,-10.01291 -7.90189,-7.96683 -16.32425,-15.88353 -28.57985,-13.53071 -0.72313,0.0587 -3.64472,-0.32223 -4.36785,-0.2635 z m 106.723143,9.12061 c 3.82934,3.47929 7.90141,9.07604 3,13.53125 -7.59663,8.27151 -19.15225,10.21134 -28.65625,15.15625 -5.83016,3.68876 2.35991,5.40062 6.08303,4.75284 13.01675,0.51857 27.85423,0.08 36.14547,-11.33404 6.44385,-5.63038 8.20181,-16.608 1.11196,-22.50706 -6.73841,-2.44629 -7.94639,-1.07045 -15.03068,-1.74891 1.02083,1.15625 -3.67436,0.99342 -2.65353,2.14967 z m -63.09375,26.28125 c -5.6581,1.18224 -6.98941,10.5451 -2.40625,13.25 -7.20945,5.98798 -9.828623,15.66126 -15.254453,23.16144 -3.14299,3.53392 -4.80713,7.84121 -6.93305,11.99481 -4.35382,7.42261 -5.7264,16.08451 -7.78749,24.38548 -1.85756,10.72777 -0.39061,22.12073 3.72499,32.05202 0.11473,2.67774 2.18556,5.98886 2.6251,9.67698 5.15837,8.83449 10.776,16.64636 20.374903,20.22927 6.75922,-0.98115 13.88528,-0.13772 20.40625,-2.3125 0.10051,-6.1203 -8.35496,-7.08674 -11.09375,-12.09375 -5.95286,-6.88053 -9.67564,-15.20467 -10.59085,-24.29675 -2.42932,-17.20712 -3.223003,-35.3818 2.52984,-51.93023 2.38497,-9.48387 8.29375,-18.55643 8.56101,-28.36677 4.72165,2.10346 8.1613,-5.35024 8.5625,-9.25 -0.16282,-6.15831 -8.03382,-7.24094 -12.71875,-6.5 z m -92.718753,8.625 c -1.88669,4.62269 1.28794,8.08494 4.5,11.5625 1.87984,2.71115 -6.98968,4.27132 -8.5111,7.90574 -4.6404796,4.85133 2.0572,6.42176 6.48993,6.42844 12.10213,0.19502 23.0476,2.80881 33.12581,-5.44032 3.82783,-0.85763 6.59237,-2.06717 10.24082,-4.87542 5.97477,-2.971 12.46043,-5.58791 18.50639,-7.50738 5.1165,-4.35379 -0.52368,-6.12466 -5.0081,-5.54231 -13.96718,-0.48921 -27.05713,10.98976 -40.82207,7.21824 -6.32314,-2.29569 -13.12282,-4.82289 -17.08321,-11.2935 -2.18353,-2.97621 -0.65348,0.51943 -1.43847,1.54401 z m 184.093753,0.375 c -12.51016,5.97825 -25.37038,14.59142 -40.4375,12.90625 -6.45794,-0.47668 -12.78833,-1.67598 -18.96875,-3.5 -4.1411,4.71825 3.94553,7.92707 7.0625,10.34375 11.70149,7.29025 26.39124,7.36844 39.37949,3.38745 6.82924,-1.97495 15.19806,-1.68679 20.62051,-6.1687 1.47042,-4.8925 -10.57762,-0.72182 -7.22685,-7.39012 0.20956,-4.84208 9.35177,-11.60355 0.0394,-9.64113 l -0.25,0 -0.21875,0.0625 z m -73.5,16.75 c -5.50021,2.10863 -5.49519,7.77279 -3.42522,12.40249 2.31402,4.90159 0.13292,14.05848 7.81893,13.72735 3.84268,1.03288 10.20988,0.36571 7.73129,-5.06734 -2.95411,-7.66569 -6.59902,-15.00883 -10.21875,-22.375 -0.63542,0.4375 -1.27083,0.875 -1.90625,1.3125 z"
       id="path1464"
       sodipodi:nodetypes="cccccccccccccccccccccccccccccccccccccccccccccccccccccccccc"
       inkscape:connector-curvature="0" />
    <path
       inkscape:export-ydpi="72.000000"
       inkscape:export-xdpi="72.000000"
       inkscape:export-filename="/users/brisset/pprz/savannah/paparazzi3/data/pictures/penguin_logo.png"
       style="fill:#090903"
       d="m 171.91362,315.7972 c -12.02158,-3.0178 -24.6852,-13.02084 -30.35112,-23.97443 -1.90357,-3.68007 -4.11645,-7.22981 -4.91753,-7.88833 -0.93219,-0.7663 -5.35329,-1.1973 -12.28166,-1.1973 -9.99531,0 -13.07488,0.70508 -9.33977,2.13837 3.14876,1.2083 0.92944,8.36163 -2.5942,8.36163 -1.11311,0 -1.76814,0.41372 -1.45563,0.91938 1.06704,1.72651 -2.65596,4.27741 -5.61003,3.84385 -2.14362,-0.31462 -3.21007,0.15242 -4.3618,1.91017 -1.094433,1.67031 -2.470923,3.25933 -4.879783,3.25933 -2.87261,0 -3.93138,-1.68804 -7.35923,-6.18273 -2.20215,-2.8875 -5.06937,-8.03753 -6.37161,-11.44452 -1.83729,-4.80681 -2.92776,-6.33623 -4.86771,-6.82711 -1.375,-0.34793 -4.075,-1.31044 -6,-2.13891 -1.925,-0.82847 -5.00985,-2.15907 -6.85521,-2.95688 -1.84537,-0.79781 -4.20787,-1.17995 -5.25001,-0.84919 -2.67294,0.84836 -2.46251,-1.89785 0.60941,-7.95287 1.37269,-2.70571 2.49581,-6.0127 2.49581,-7.34887 0,-4.35027 -3.11963,-9.38369 -6.75808,-10.90393 -4.10873,-1.71673 -7.70267,-0.78253 -14.62242,3.80092 -2.52846,1.67478 -5.19367,3.1326 -5.9227,3.2396 -0.72903,0.107 -2.61598,1.20962 -4.19322,2.45028 -1.57723,1.24065 -3.48415,2.01918 -4.23758,1.73006 -1.99707,0.48816 -2.07306,1.21957 -4.11419,1.89321 -2.73731,0.90339 -1.78951,0.77142 -3.9341,0.71134 -1.80341,0.18616 -5.38758,0.322 -7.41491,0.90343 -3.6030896,1.03335 -5.3705496,0.33246 -3.8331196,-1.52004 0.67146,-0.80905 3.3774296,-1.26368 7.3017796,-1.22676 5.35746,0.0504 7.26234,-0.48121 13.53475,-3.77727 l 7.29978,-3.83593 -0.6396,-5.11919 c -0.51001,-4.082 -0.11197,-6.63452 1.96459,-12.59828 5.54236,-15.91734 15.5787,-25.8632 31.44303,-31.15953 4.73188,-1.57975 10.25692,-3.13667 12.27786,-3.45984 2.10442,-0.33651 3.92022,-1.28663 4.24964,-2.22364 0.31635,-0.89984 1.46675,-2.98608 2.55643,-4.63608 1.08968,-1.65 2.62392,-4.125 3.40943,-5.5 0.78551,-1.375 3.06109,-4.9254 5.05685,-7.88977 l 3.34066,-5.96573 -3.3489,-1.89538 c -5.86842,-3.98769 -9.28001,-4.49816 -18.08664,-2.70627 -5.46973,1.11293 -9.93327,2.85343 -14.81033,5.77509 -3.83954,2.30013 -11.10652,6.807 -14.26902,8.35944 -5.41303,2.65721 -6.51184,2.82262 -18.75,2.82262 -20.00653,0 -24.3002496,-2.77562 -15.85615,-10.25 2.64077,-2.3375 5.37622,-4.25 6.07878,-4.25 1.95354,0 1.40343,-1.72204 -0.83921,-2.92227 -1.1,-0.5887 -3.35614,-4.60403 -2.42341,-4.80261 0.55819,0.0944 1.26828,0.75943 3.21959,2.80615 1.8684,1.95976 5.95834,3.8461 5.98335,4.37656 0.01738,0.3688 -0.90044,1.6581 -2.41294,1.99401 -3.58843,0.79695 -11.68216,5.70333 -11.99005,7.2683 -0.52254,2.65603 4.26775,3.76477 16.99539,3.9337 12.16287,0.16143 13.02957,0.0365 18.65896,-2.69046 3.24698,-1.57286 6.19614,-3.33306 6.55367,-3.91156 0.35754,-0.5785 1.7485,-1.05182 3.09105,-1.05182 1.41945,0 11.4932,-7.69102 15.0942,-8.2904 1.01573,-0.16907 2.85928,-0.86372 4.09678,-1.54368 1.2375,-0.67996 2.98473,-0.5308 3.88273,-1.27607 1.48122,-1.22931 1.42419,-1.40428 -0.61453,-1.88555 -4.08346,-0.96398 -14.39624,0.74077 -22.5182,3.72235 -4.40001,1.61525 -10.06459,3.04204 -12.58797,3.17065 -6.53504,0.33306 -16.59805,-3.22016 -21.41203,-7.56054 l -4,-3.60648 -0.97711,3.21782 c -0.09461,4.60294 -1.67835,2.3313 -1.67835,-2.87037 0,-2.75 0.74945,-3.78183 1.29945,-3.78183 0.55,0 1.47783,0.22411 1.47783,0.75189 1.3991,2.67844 8.90273,9.25971 13.37817,10.41353 9.5628,2.46538 11.37131,2.40639 20.84446,-0.67984 4.58944,-1.49518 8.63945,-2.66001 9,-2.58852 0.36055,0.0715 2.00555,-0.45404 3.65555,-1.16787 1.65,-0.71384 6.24295,-1.349 10.20656,-1.41149 l 7.20656,-0.1136 1.54344,-4.03343 c 0.84889,-2.21839 1.54344,-4.78037 1.54344,-5.6933 0,-1.91413 3.66199,-4.77327 6.11361,-4.77327 0.91774,0 3.81261,1.7717 6.43305,3.9371 l 4.764443,3.93711 1.91702,-2.43711 c 1.05437,-1.3404 2.78437,-2.4371 3.84445,-2.4371 1.06008,0 1.92742,-0.39534 1.92742,-0.87853 0,-1.32804 -9.61294,-9.21608 -17.500003,-14.35989 -7.87377,-5.13513 -12.6707,-6.74788 -20.095,-6.756 -7.11414,-0.008 -8.91706,2.0766 -7.97019,9.21448 0.38454,2.89877 1.41376,6.06011 2.28717,7.02521 0.8734,0.9651 11.02048,9.65198 13.61874,10.30411 2.97765,0.74734 6.09891,2.91932 3.39658,2.91271 -3.73236,-0.009 -19.20678,-11.07983 -21.78148,-16.22058 -0.75519,-1.50783 -1.82196,-3.34941 -2.37061,-4.09239 -1.08891,-1.47463 -1.22303,-1.40873 -2.68725,-8.43472 -0.7399,-3.55033 -0.55118,-5.47112 0.3299,-7.05496 0.44085,-1.40754 0.94242,-2.39113 1.23671,-3.04074 0.2943,-0.59463 1.60342,-1.72221 3.51984,-2.75 7.41474,-3.97657 19.38395,-1.49444 27.84086,5.77353 8.16688,7.0187 18.047693,17.56391 21.218573,22.64535 3.41431,5.47154 6.57737,8.42454 7.75859,7.24332 1.66052,-1.66051 1.21663,-13.63984 -0.83487,-22.5309 -1.2056,-5.225 -2.98723,-13.325 -3.95917,-18 -2.96176,-14.24588 -7.20743,-29.98616 -10.29459,-38.1659 -2.12702,-5.63576 -2.15243,-5.65864 -4.77765,-4.30108 -1.451603,0.75064 -4.078143,3.0036 -5.836763,5.00656 l -3.1975,3.64175 -3.35206,-1.59067 c -4.17656,-1.98191 -9.7784,-2.04094 -13.45104,-0.14175 -3.52582,1.82328 -9.09878,8.09576 -9.09878,10.24087 0,1.45456 -0.17891,1.46503 -1.75,0.10247 -4.42056,-3.83383 -14.27296,-2.78917 -18.81144,1.9946 -3.24818,3.42372 -6.43857,9.49021 -6.43857,12.24286 0,2.8435 -4.37245,2.35964 -4.78682,-0.52971 -1.24017,-8.64775 -1.16256,-14.375926 -0.15841,-14.375926 0.60538,0 0.97686,4.338426 1.01552,6.125926 0.03866,1.7875 0.41799,4.13996 0.84296,5.2277 0.73578,1.88327 0.83793,1.8594 2.13952,-0.5 0.75176,-1.36274 1.27345,-2.94987 1.1593,-3.52696 -0.25363,-1.28227 6.97105,-8.47882 8.89998,-8.86532 0.76337,-0.15296 2.64157,-0.79225 4.17377,-1.42063 1.5322,-0.62839 4.2322,-0.91359 6,-0.63379 l 2.13154,-0.57393 1.3091,-4.68721 c 0.12455,-3.17342 0.92286,-8.24486 1.77403,-11.26986 0.85117,-3.025 1.669,-6.01711 1.81738,-6.64912 0.14839,-0.63202 0.7047,-1.75702 1.23625,-2.5 0.53154,-0.74299 1.81573,-2.925884 2.85375,-4.850884 1.03802,-1.925 4.89209,-7.775 8.5646,-13 8.987,-12.786116 8.82453,-12.463502 5.37942,-10.681964 -1.57754,0.815776 -3.76457,1.640445 -4.86007,1.832597 -1.09549,0.192152 -2.21681,0.589926 -2.49181,0.883942 -0.275,0.294017 -3.18141,2.292906 -6.45869,4.441976 -11.73325,7.694052 -21.31963,18.194524 -27.40984,30.023453 -2.02302,3.92928 -4.26237,8.438827 -4.27623,7.019457 -0.04323,-4.42626 14.51976,-27.508164 17.55544,-27.525784 0.59912,-0.0035 1.86037,-1.361289 2.80277,-3.01736 0.9424,-1.656071 2.5174,-3.304813 3.5,-3.663872 0.9826,-0.359058 3.13655,-1.708029 4.78655,-2.997714 1.65,-1.289684 3.47145,-2.675597 4.04766,-3.079806 1.7462,-1.22494 11.71708,-6.09511 15.56692,-7.603499 4.27297,-1.674173 5.54953,-5.089098 3.83942,-10.270814 -1.39446,-4.2252544 -0.02631,-6.3606134 4.07532,-6.3606134 2.12117,0 3.79435,1.206232 7.024163,5.0638944 l 4.23974,5.063893 6.33572,-0.678498 c 6.39023,-0.684336 20.71334,0.727749 20.71334,2.064338 0,0.397898 -10.82979,-0.138544 -15.09229,-0.337086 -5.11018,-0.238026 -7.40938,-0.02439 -6.75,0.627196 0.55,0.5435 7.075,4.206521 14.5,8.140047 7.425,3.933526 14.625,8.159987 16,9.392136 3.54708,3.178567 14.84836,17.115981 15.20325,18.749545 0.16321,0.75129 1.28113,2.17495 2.48427,3.16369 2.13232,1.75235 2.29634,1.7216 6.5,-1.21853 4.02278,-2.81362 4.96453,-3.0266 14.01902,-3.17038 8.98774,-0.14273 9.6357,-0.2865 8.75,-1.941453 -1.22404,-2.287128 -1.21779,-3.198284 0.0167,-2.43533 0.53528,0.330823 1.71156,2.157381 2.61394,4.059017 0.90239,1.901636 2.03943,3.457526 2.52676,3.457526 1.45055,0 1.00461,3.01728 -0.53315,3.60737 -0.78057,0.29953 -2.6734,-0.27709 -4.20629,-1.28139 -4.37243,-2.86464 -15.57278,-2.29225 -21.66142,1.107 l -4.699,2.62342 -4.26715,-1.94391 c -3.48172,-1.58611 -5.13707,-1.7814 -8.99334,-1.06097 -6.19768,1.15785 -10.71287,3.5071 -13.57607,7.06362 -1.27736,1.58667 -2.71941,2.88486 -3.20454,2.88486 -1.39915,0 -6.06517,-5.04183 -5.50493,-5.9483 0.92294,-1.49336 -2.30188,-10.24144 -6.06092,-16.44167 -9.01646,-14.871884 -16.87895,-22.461382 -21.950633,-21.188472 -3.88536,0.975162 -6.35757,7.661199 -8.17325,22.104302 -1.32003,10.50048 -1.35626,13.27026 -0.23942,18.30447 l 1.31595,5.93178 4.77364,-3.77334 c 5.374363,-4.24819 17.774763,-8.75538 18.932843,-6.88156 0.49769,0.80528 0.80477,0.77971 1.09507,-0.0912 0.31088,-0.93264 1.37103,-0.94975 4.62105,-0.07461 5.12949,1.38123 11.52276,5.603585 6.55085,4.796755 l -9.47734,-3.023225 0.64046,3.89253 c 0.35226,2.1409 1.71579,7.71754 3.03008,12.39254 1.31428,4.675 4.03191,16.375 6.03918,26 5.0217,24.07955 7.94658,36.22 9.36432,38.86908 1.16682,2.18021 1.41907,2.02449 9.01189,-5.56304 6.24518,-6.24084 9.79119,-8.80721 17.68482,-12.79913 8.52074,-4.30904 10.83394,-5.0416 16.88506,-5.34726 6.27663,-0.31705 7.44918,-0.0677 11.18491,2.3781 3.34123,2.18757 4.30267,3.49849 4.82253,6.57554 0.35712,2.11379 0.33721,5.31553 -0.0443,7.11498 -0.79529,3.7516 -5.40557,10.7667 -9.58806,13.20178 -1.70953,2.54939 -5.86256,4.90328 -7.606,4.90328 -3.55528,2.44357 -15.86631,3.85718 -28.32888,3.164 l -12.85914,-0.71525 -0.65425,2.60673 c -1.0099,4.02378 0.0817,5.50221 6.09552,8.25542 4.98887,2.28398 6.92152,2.56079 18.85284,2.70031 9.31514,0.10893 13.74353,-0.21607 14.79562,-1.08586 0.82582,-0.68273 20.71971,-10.33301 23.78861,-10.55432 1.5587,-0.1124 3.67553,-1.31739 5.56487,-1.27728 4.7668,0.10119 5.15556,2.23233 0.86863,4.76169 -4.05924,2.39501 -6.36225,6.81664 -4.22664,8.11488 0.7271,0.44201 3.6845,2.13861 6.572,3.77023 7.59043,4.28907 6.93011,5.45371 -2.99964,5.29058 -4.5377,-0.0745 -8.59854,0.39923 -9.14854,0.80394 -0.55,0.40472 -4.02682,1.0802 -7.60182,1.74995 -3.575,0.66975 -8.38677,1.63711 -10.69282,2.14969 -12.83303,2.85247 -28.00909,-1.88025 -40.16724,-12.52636 l -3.37849,-2.95831 -2.98158,3.33697 c -1.63987,1.83533 -2.54852,3.61657 -2.01922,3.95831 0.905,0.58432 3.27612,5.3474 8.14443,16.36045 1.15221,2.60651 2.09492,5.65129 2.09492,6.76618 0,2.29902 0.91707,2.77516 18.47817,9.59381 6.58799,2.558 13.01003,4.65091 14.2712,4.65091 1.38016,0 4.39828,-1.99104 7.58111,-5.00123 4.15354,-3.92825 6.41227,-5.24233 10.52801,-6.125 9.18609,-1.97007 16.34784,-1.00677 24.85493,3.34312 3.56817,1.82449 11.28658,10.09536 11.28658,12.09444 0,0.70387 1.35,1.57627 3,1.93867 1.65,0.3624 3,1.29816 3,2.07946 0,1.56803 5.49978,2.03893 6.42017,0.5497 0.29602,-0.47896 1.98195,-1.15958 3.74652,-1.5125 3.39887,-0.67977 14.17872,-10.97887 15.34826,-14.66375 2.25049,-0.95761 4.83474,2.37555 4.33182,11.35533 l -0.34677,6.19176 7.35233,-0.18762 c 5.22537,-0.13335 7.87997,-0.66513 9.17623,-1.83823 1.61499,-1.46155 2.49093,-1.50441 7.64767,-0.3742 3.20307,0.70202 6.11883,1.71212 6.47947,2.24466 1.08575,1.60332 25.57497,0.0619 28.39737,-1.78743 4.13925,-2.71214 15.02491,-1.31408 18.5187,1.37119 0.47947,0.46701 5.94358,4.07014 5.89279,10.25589 -0.0543,6.61831 -4.95933,13.52178 -11.59758,16.32286 -3.36507,1.41993 -4.90534,1.47572 -11.86698,0.42989 -4.4,-0.66101 -8.59824,-1.677 -9.32941,-2.25777 -2.08197,-1.65369 -20.01001,-3.67278 -26.80077,-3.01836 -5.93576,0.57202 -6.21943,0.49059 -8.94422,-2.56752 -1.54772,-1.73705 -3.41999,-2.92575 -4.1606,-2.64156 -0.74061,0.2842 -4.8129,0.0346 -9.04953,-0.55466 -6.97019,-0.96946 -7.7987,-0.90415 -8.70922,0.68654 -3.93489,6.87428 -10.93916,12.10944 -19.16509,14.32446 l -4.1476,1.11683 1.90322,3.93921 c 2.36232,4.88943 2.36483,6.87757 0.0126,9.93713 -1.48573,1.93246 -2.43998,2.28256 -4.88731,1.79309 -2.16416,-0.43283 -3.20233,-0.1881 -3.60018,0.84869 -0.79775,2.07889 -1.95982,1.83459 -6.82171,-1.43415 -5.08411,-3.41814 -11.2586,-6.10894 -14.01796,-6.10894 -1.81222,0 -6.33433,2.08649 -9.6297,4.44311 -0.74114,0.53002 -2.2276,1.09797 -3.30324,1.26213 -1.07564,0.16415 -3.16925,0.91007 -4.65247,1.65759 -1.48322,0.74752 -3.68356,1.27379 -4.88965,1.16948 -1.20609,-0.10431 -6.37292,3.09026 -11.74398,3.73514 -2.83846,0.3408 -3.97232,5.81828 -2.50993,12.12513 2.08015,8.97111 8.40376,21.07678 12.89532,24.68629 2.22789,1.79038 3.84393,3.46201 3.5912,3.71474 -1.08134,1.08134 -8.43175,0.9508 -13.14964,-0.23355 z m -67.59337,-20.06006 c 2.40845,0 3.80154,-0.60345 4.58195,-1.98478 0.61674,-1.09163 1.90884,-2.57965 2.87134,-3.30671 2.05947,-1.55569 2.25338,-3.54585 0.48823,-5.0108 -0.69397,-0.57594 -4.40647,-1.28597 -8.25,-1.57784 -10.147073,-0.77056 -15.887713,-1.65603 -16.473983,-2.54107 -1.16832,-1.32895 -4.01424,-0.81956 -4.01424,0.65249 0,3.33245 4.75259,12.07394 8.46418,15.56827 l 4.03581,3.79957 2.41806,-2.79957 c 1.780083,-2.06093 3.331083,-2.79956 5.878653,-2.79956 z m -5.796713,-14.5 c 0,-0.55 -0.675,-1 -1.5,-1 -0.825,0 -1.5,-0.45 -1.5,-1 0,-0.55 -0.58672,-1 -1.30383,-1 -1.93443,0 -8.02886,-6.65266 -7.24956,-7.91359 0.36929,-0.59753 -2.21248,-3.78641 -3.4466,-7.08641 -1.23412,-3.3 -2.47337,-6 -2.75389,-6 -3.35319,0 -13.24611,10.88501 -13.24611,14.57446 0,1.44242 4.04351,3.08116 9.75425,3.95316 2.33984,0.35729 3.84598,2.17928 4.70655,1.84905 0.86057,-0.33023 2.20395,-0.0699 2.9853,0.57859 0.78134,0.64846 3.08677,1.38567 5.12317,1.63825 2.0364,0.25258 4.42889,0.88368 5.31663,1.40245 2.11378,1.23523 3.11409,1.23652 3.11409,0.004 z m 16.000003,-0.42846 c 4.675,-0.28884 8.6125,-0.5356 8.75,-0.54835 0.1375,-0.0128 0.25,-0.40485 0.25,-0.87132 0,-0.46646 -1.86768,-1.69033 -4.15041,-2.71969 -4.11478,-1.85551 -11.22777,-10.3012 -11.84959,-12.93864 -2.48729,-2.7507 -7.996603,-22.50767 -7.998633,-36.17118 -0.002,-13.65131 1.570663,-22.62592 7.114673,-40.5999 2.75024,-8.91646 5.08673,-17.78915 5.1922,-19.7171 0.17067,-3.11991 -0.082,-3.50536 -2.29807,-3.50536 -1.96144,0 -3.17237,1.16718 -5.70614,5.5 -6.248593,10.68528 -10.815823,18.1707 -11.804033,19.34609 -0.55,0.65418 -2.12187,3.43143 -3.49304,6.17166 -1.37118,2.74024 -3.00174,5.65725 -3.62345,6.48225 -0.62172,0.825 -2.31234,6.03655 -3.75695,11.58122 -3.47587,13.3411 -3.4844,22.82802 -0.03138,34.91878 1.41368,4.95 2.91326,10.35 3.33241,12 1.7687,6.9626 6.13708,14.27828 10.22669,17.12651 6.310863,4.39523 7.872753,5.1707 9.680143,4.80615 0.91607,-0.18477 5.49058,-0.57227 10.16558,-0.86112 z m 17.70902,-1.57154 c 1.28667,0 1.42808,-0.87905 0.84456,-5.25 -0.38549,-2.8875 -1.00524,-10.57491 -1.37723,-17.08314 -0.57676,-10.09069 -0.96218,-12.04177 -2.61748,-13.25 -2.7769,-2.0269 -14.89043,-1.84557 -20.9126,0.31304 l -4.85374,1.73979 0.59828,4.36495 c 0.80079,5.8424 6.18487,15.77962 11.10298,20.49244 2.19659,2.10489 6.12801,4.74519 8.7365,5.86734 2.72874,1.17387 4.46646,2.48723 4.09216,3.09285 -0.41015,0.66364 -0.005,0.80505 1.09529,0.38267 0.96021,-0.36847 2.44128,-0.66994 3.29128,-0.66994 z m 47.54098,-8.16194 c 1.5125,-0.59439 2.75,-1.37358 2.75,-1.73154 0,-0.35796 -1.40317,-2.35312 -3.11816,-4.4337 -2.39569,-2.90639 -3.72622,-3.71219 -5.74261,-3.47784 -3.33586,0.3877 -5.54709,4.67158 -4.61108,8.9332 0.63458,2.8892 0.87175,3.02221 4.32164,2.42377 2.00761,-0.34826 4.88771,-1.11951 6.40021,-1.71389 z m 45.71099,-3.18689 c 1.47653,-2.38909 -7.86685,-8.37297 -7.86685,-8.8313 0,-0.45834 -9.67002,-4.48654 -10.37388,-4.48654 -0.85598,0 -1.15362,1.08032 -0.89886,3.26253 0.3395,2.90812 0.79693,3.33281 4.21102,3.90962 2.10657,0.3559 5.99712,2.18777 8.64566,4.07081 5.12667,3.64492 5.42326,3.46582 6.28291,2.07488 z m 7.7288,-0.90117 c 0.51407,-0.6875 0.86271,-1.925 0.77475,-2.75 -0.088,-0.825 -0.22845,-2.23883 -0.31223,-3.14185 -0.2034,-2.19258 -8.96163,-11.85815 -10.74498,-11.85815 -0.77403,0 -1.40902,-0.3375 -1.41108,-0.75 -0.002,-0.4125 -2.08233,-1.60493 -4.62281,-2.64985 -5.42954,-2.23321 -9.1472,-1.43837 -11.0412,2.36062 -1.58908,3.18737 -1.06603,3.82566 4.22712,5.15849 2.9692,0.74766 6.85243,1.95861 9.6107,4.06806 1.83147,1.40066 5.12994,4.40611 7.32994,6.67878 4.37924,4.52389 4.81255,4.72577 6.18979,2.8839 z m 10.20095,-18.69153 c 2.22827,-1.19253 10.10926,-9.72294 10.10926,-10.94229 0,-0.51068 -2.1375,-1.18026 -4.75,-1.48796 -2.6125,-0.3077 -7.1125,-0.84215 -10,-1.18767 -3.51648,-0.42079 -6.34009,0.46021 -7.40371,1.11976 -1.35893,0 -2.43349,2.0005 -4.1341,5.68969 l -2.4201,5.25 2.55233,2.61504 c 2.53094,2.59313 2.60156,2.60354 8.43204,1.24339 3.23385,-0.75441 6.66028,-1.78939 7.61428,-2.29996 z m 91.42966,-1.99018 c 3.581,-1.3615 8.54929,-7.04047 9.68316,-11.06829 1.35517,-4.81392 0.37407,-5.10193 -1.42739,-8.5 l -2.41389,-3 1.09635,4.14098 c 2.05685,7.76882 -2.86988,15.51609 -11.75863,18.49042 -1.90127,0.6362 -1.89215,0.67416 0.1849,0.76892 1.2017,0.0548 3.28767,-0.31959 4.6355,-0.83203 z m -23.10521,-6.05549 c -0.64423,-4.3894 0.43028,-7.53942 3.93234,-11.52805 1.71525,-1.95356 2.89097,-3.77958 2.61271,-4.05784 -0.27825,-0.27826 -3.37564,-0.0484 -6.88308,0.51078 -3.50744,0.55918 -10.07027,0.87561 -14.58407,0.70318 l -8.20692,-0.31351 -1.54308,3.85656 c -0.8487,2.1211 -1.54309,5.35879 -1.54309,7.19486 l 0,3.3383 7.25,1.14875 c 7.06122,1.11884 11.56699,1.64746 16.82681,1.97413 2.31736,0.14393 2.53266,-0.14072 2.13838,-2.82716 z m 23.3645,1.10173 c 6.45293,-3.93499 7.17082,-14.05458 1.17586,-16.57527 -2.79836,-1.17662 -3.46931,-1.09026 -6.39453,0.8231 -3.46205,2.26449 -7.36102,8.20182 -7.36102,11.20934 0,2.70922 4.00891,6.42879 6.92431,6.42456 1.41663,-0.002 3.96155,-0.84883 5.65538,-1.88173 z m -18.70277,-1.28906 c 0.74691,-1.19599 1.54267,-4.23349 1.76835,-6.75 l 0.41033,-4.57547 -2.5278,2.80576 c -1.80224,2.00042 -2.5278,3.93789 -2.5278,6.75 0,4.43494 0.87595,4.97377 2.87692,1.76971 z m -32.70903,-3.18245 c -0.25524,-3.20923 0.34001,-5.71179 2.25964,-9.5 l 2.60616,-5.14302 -2.93506,0 c -4.5314,0 -6.02296,0.93135 -8.14123,5.0835 -2.83712,5.56122 -2.52169,8.32682 1.2926,11.33293 4.52053,3.56272 5.31938,3.27465 4.91789,-1.77341 z m -80.24758,0.77219 c 4.89498,-1.95858 7.21552,-5.32855 6.89959,-10.01978 -0.43626,-6.47776 -7.52042,-9.67646 -11.39559,-5.14543 -4.89527,5.72379 -5.8206,11.35371 -2.42431,14.75 2.39948,2.39948 2.0183,2.37661 6.92031,0.41521 z m -1.41747,-3.40626 c -0.34756,-1.09508 -0.58819,-2.55758 -0.15473,-3.25 0.74438,-1.62515 0.80001,-2.00432 1.12546,-2.74259 1.91456,-0.89043 3.45438,-2.33606 4.55612,0.56172 0.87015,2.28868 0.68309,3.09875 -1.1714,5.07277 -2.6945,2.86815 -3.53681,2.93741 -4.35545,0.3581 z m 72.08958,-2.63713 c 0.224,-2.8875 0.98346,-5.96511 0.92768,-6.07914 -0.0558,-0.11403 -9.88522,-0.33903 -21.84321,-0.5 -18.45138,-0.24839 -21.88804,-0.0657 -22.70809,1.20732 -2.21147,3.43293 -0.64979,4.45357 9.5439,6.2374 14.16094,2.47809 22.13593,3.49056 28.64079,3.6361 l 5.65348,0.1265 -0.21455,-4.62818 z m -44.48111,-8.62182 c 0.70143,-1.35541 0.49786,-1.75 -0.90284,-1.75 -3.67853,0 -5.53262,4.27585 -2.96671,6.84176 0.98901,0.98901 1.41702,0.77529 2.10283,-1.05 0.47359,-1.26047 1.26861,-3.07926 1.76672,-4.04176 z m 30.35923,-3 c 1.01487,-4.4893 1.20225,-7.29061 0.62174,-9.29482 -0.51989,-1.79489 -1.38974,-1.2143 -7.11651,4.75 l -6.52422,6.79482 6.25517,0 c 5.66947,0 6.3028,-0.21068 6.76382,-2.25 z m -121.90948,-23.5 c -0.70742,-2.9667 -8.63537,-20.25 -9.28878,-20.25 -0.21784,0 -1.43229,0.78163 -2.69879,1.73695 l -2.30272,1.73695 1.86461,5.4196 c 1.02554,2.98078 1.87151,6.58665 1.87993,8.01305 0.0265,4.48213 1.84073,5.8734 7.8431,6.0145 3.16781,0.0745 3.32119,-0.0771 2.70265,-2.67105 z m -12.20092,0.72289 c 0.51156,-0.51127 -0.4295,-5.61738 -2.42209,-13.14211 l -0.97164,-3.66923 -5.84088,-0.0279 -5.84087,-0.0279 -1.81512,5.99493 c -0.99832,3.29722 -2.18737,6.225 -2.64233,6.50618 -0.45497,0.28118 -0.82721,1.5099 -0.82721,2.73048 0,2.14502 0.33163,2.21829 9.91636,2.19098 5.454,-0.0155 10.1537,-0.26545 10.44378,-0.55536 z m 68.8719,-19.08242 c 1.50262,-0.61503 4.72922,-1.31465 6.56364,-1.65415 1.15963,0.30325 3.9241,-0.48316 5.12986,-0.57398 1.91593,-0.14433 2.36076,-1.14882 0.44476,-1.81154 -0.36667,-0.031 -2.3328,-0.81156 -4.1203,-1.23671 -3.90559,-0.92893 -4.23116,-3.26673 -1.26512,-9.08443 1.09168,-2.14128 2.82865,-4.16944 2.61551,-4.38258 -0.7202,-0.72019 -10.08061,2.20227 -12.85039,4.10247 -1.5125,1.03765 -4.02427,1.52162 -5.5817,2.63061 -6.01938,4.28618 -12.76775,6.12064 -22.45532,6.10422 -5.06714,-0.009 -11.80048,-0.62452 -14.96298,-1.36872 -3.1625,-0.7442 -5.75,-0.98379 -5.75,-0.53242 0,1.17676 8.28763,6.71411 13.49921,9.01944 7.27782,3.21932 14.71145,3.70226 26.00079,1.68919 5.5,-0.98074 11.22942,-2.28637 12.73204,-2.9014 z m -74.23204,-22.2838 c 0,-3.00576 -1.87871,-4.55045 -6.43339,-5.28957 -4.84127,-0.78563 -7.56661,1.6312 -7.56661,6.71008 0,3.56347 0.16543,3.74366 4,4.35683 2.2,0.35179 4.01319,1.19681 4.02931,1.87781 0.0546,2.3083 5.97069,-5.27679 5.97069,-7.65515 z m 53.30686,-2.69085 c 13.72604,-4.50594 23.58203,-18.42864 19.13438,-27.02945 -1.91427,-3.70179 -4.93182,-4.88637 -12.44732,-4.88637 -5.8055,0 -8.74323,1.30928 -5.08452,2.26606 2.93402,0.76726 5.36649,5.20136 4.64798,8.47271 -1.02061,4.64678 -9.47574,12.14847 -16.05738,14.24669 -2.2,0.70135 -4.45,1.59988 -5,1.99673 -0.55,0.39685 -3.3625,1.5521 -6.25,2.56722 -8.46065,2.97441 -6.89213,4.45059 4.729,4.45059 7.41589,0 11.60971,-0.53532 16.32786,-2.08418 z m -21.23223,-5.2985 c 13.62831,-4.89108 15.34209,-5.7568 20.09736,-10.15227 2.35929,-2.18078 3.63747,-2.0472 4.87671,-3.77575 0.8188,-2.35036 -0.18484,-6.04493 -1.29678,-7.4393 -1.41276,-1.77161 -6.78197,-1.44739 -8.63589,-0.81679 -1.01384,0.51025 -8.85422,3.129 -13.54063,6.75131 -2.24147,1.73252 -6.4905,6.00277 -9.44229,9.48945 -4.45955,5.26767 -5.15736,6.59189 -4.12755,7.83273 1.61801,1.94958 1.18227,2.01779 12.06907,-1.88938 z M 99.376537,129.81639 c -13.09201,-12.06227 -16.56803,-14.35 -23.44127,-15.42783 -9.43102,-1.47893 -15.98767,1.19404 -15.98767,7.34212 0,1.60307 0.32138,5.71763 0.73719,7.53231 -0.34133,3.254 1.41964,4.87003 2.29645,2.10745 0.33093,-1.04266 1.52626,-2.96169 2.65629,-4.26452 1.84567,-2.12789 2.83417,-2.35835 9.72031,-2.26624 8.27944,0.11075 11.89091,1.39787 22.1657,7.89984 6.900093,4.36642 7.956353,2.70016 1.853,-2.92313 z m -73.103,167.73142 c -0.96249,-0.25152 -1.74999,-1.06226 -1.74999,-1.80164 0,-0.73937 -1.6875,-2.16888 -3.75,-3.17667 -2.0625,-1.0078 -3.7935,-2.50736 -3.84666,-3.33236 -0.1754,-2.72215 -1.55981,-4.91488 -3.4898,-5.52744 -2.93221,-0.93065 -4.9135396,-3.36782 -4.9135396,-6.04399 0,-1.33571 -0.47173,-2.42857 -1.04828,-2.42857 -1.31814,0 -3.82658,-5.82725 -3.4134,-7.92953 -1.22934,-4.43924 2.67492,-6.41618 2.717,-6.82868 0.04208,-0.4125 0.46411,0.6491 0.93784,0.6491 0.47373,0 -3.09087,2.71203 -1.9622,5.68126 -0.53543,2.80092 1.54954,7.68154 2.91975,6.8347 0.46711,-0.28868 2.6832996,0.94594 2.2616896,3.14916 -0.74706,3.90392 1.56094,5.98229 6.19947,5.58266 3.74314,-0.32249 4.16335,0.34724 1.8333,2.92191 -0.32874,0.94388 -1.35042,1.93539 0.75,4.16868 1.92685,2.04872 2.79681,2.31365 5.30483,1.61548 1.64999,-0.45932 3.67206,-0.58437 4.49347,-0.27789 1.17779,0.43945 0.96641,0.96218 -1,2.47296 -2.31293,1.77701 0.79635,2.9454 3.93397,2.35865 0.49456,-0.0925 1.71688,-0.88588 2.5819,-0.55394 1.3682,0.52503 1.49123,0.28491 0.21072,1.09472 -1.53443,0.97039 -6.00927,2.14517 -8.97007,1.37143 z m 7.80336,-2.22434 c -0.31058,-0.50253 0.75541,-1.49801 2.36886,-2.21219 1.61345,-0.71418 2.67836,-1.71141 2.36647,-2.21606 -0.31189,-0.50465 0.05806,-0.70637 0.82212,-0.44826 0.76406,0.2581 2.35579,-0.83373 3.53719,-2.42629 1.45164,-1.95686 3.21528,-1.12807 3.27306,-2.23267 0.10843,-2.07332 6.60718,-6.13547 6.60718,-4.13107 0,1.83596 -16.8016,14.80006 -19.01081,14.80006 -0.39516,0 0.3465,-0.631 0.03593,-1.13352 z m 17.88633,-13.54384 c 0,-0.91666 4.43855,-8.14564 5.45689,-9.31979 2.24667,-2.59043 1.69524,1.15913 -0.47466,4.25708 -1.84272,2.63086 -4.98223,7.3961 -4.98223,5.06271 z M 32.529117,83.48714 c 0.0099,-3.10943 4.23541,-14.690941 5.26312,-14.690941 0.91645,0 -1.6246,9.956391 -2.9234,14.690941 -0.62254,2.26933 -2.34695,2.26933 -2.33972,0 z m 3.47611,-10.844545 c 0.02794,-1.36867 1.55539,-4.168086 2.14294,-3.580536 0.78775,0.78775 -0.62255,4.175081 -1.73162,4.175081 -0.49115,0 -0.41975,-0.182045 -0.41132,-0.594545 z M 181.95297,43.477392 c -2.94974,-3.950024 -9.42943,-10.697098 -9.42943,-9.818531 0,0.284901 -1.61754,-0.579694 -3.59454,-1.921321 -1.977,-1.341627 -5.127,-2.993465 -7,-3.670751 -1.873,-0.677287 -3.40546,-1.617588 -3.40546,-2.089558 0,-0.471971 -0.38344,-0.621148 -0.8521,-0.331505 -0.46865,0.289643 -2.48658,-0.306688 -4.4843,-1.325179 -1.99771,-1.018492 -4.87676,-2.087058 -6.3979,-2.374592 -1.52113,-0.287534 -5.9157,-1.280729 -9.7657,-2.207101 -3.85,-0.926372 -8.0125,-1.876803 -9.25,-2.112068 -2.64693,-0.503216 -3.04347,-2.392827 -0.5,-2.382644 2.45997,0.0098 17.14302,3.599719 20.75,5.073185 1.65,0.674031 3.76619,1.375651 4.70264,1.559157 3.53567,0.692847 18.44659,8.198494 22.00595,11.077051 4.74519,3.837562 14.04933,14.884562 12.90787,15.590021 -0.48016,0.296757 -4.15084,-3.009023 -5.68703,-5.066164 z"
       id="path1462"
       sodipodi:nodetypes="ccccccccccccccccccccccccccccccccccccccccccccccccsccccccccccccccccccccccccccccccccccccccccccccccccccccccccccccccccccccccccccccccccccccccccccccccccccccccccccccccccccccccccccccccccccccccccccccccccccccccccccccccccccccccccccccccccccccccccccccccccccccccccccccccccccccccccccccccccccccccccccccccccccccccccccccccccccccccccccccccccccccccccccccccccccccccccccccccccccccccccccccccccccccccccccccccccccccccccccccccccccccccccccccccccccccccccccccccccccccccccccccccccccccccccccccccccccccccccccccccccccccccccccccccccccccccccccccccccccccccccccccccccccccccccccc"
       inkscape:connector-curvature="0" />
    <flowRoot
       xml:space="preserve"
       id="flowRoot2986"
       style="font-size:40px;font-style:normal;font-weight:bold;line-height:125%;letter-spacing:0px;word-spacing:0px;fill:#ffffff;fill-opacity:1;stroke:#000000;stroke-width:2.18876266;stroke-miterlimit:4;stroke-opacity:1;stroke-dasharray:none;font-family:Sans;-inkscape-font-specification:Sans Bold"
       transform="matrix(2.4053169,0,0,3.0509988,-384.88826,-2.8065549)"><flowRegion
         id="flowRegion2988"><rect
           id="rect2990"
           width="95.424126"
           height="47.210255"
           x="218.29184"
           y="16.409105"
           style="font-weight:bold;fill:#ffffff;fill-opacity:1;stroke:#000000;stroke-width:2.18876266;stroke-miterlimit:4;stroke-opacity:1;stroke-dasharray:none;-inkscape-font-specification:Sans Bold" /></flowRegion><flowPara
         id="flowPara2992">REP</flowPara></flowRoot>  </g>
</svg>
