<?xml version="1.0" encoding="UTF-8" standalone="no"?>
<svg
   xmlns:dc="http://purl.org/dc/elements/1.1/"
   xmlns:cc="http://creativecommons.org/ns#"
   xmlns:rdf="http://www.w3.org/1999/02/22-rdf-syntax-ns#"
   xmlns:svg="http://www.w3.org/2000/svg"
   xmlns="http://www.w3.org/2000/svg"
   version="1.1"
   id="svg2"
   viewBox="0 0 298.17751 299.71936"
   height="84.587463mm"
   width="84.152321mm">
  <defs
     id="defs4" />
  <metadata
     id="metadata7">
    <rdf:RDF>
      <cc:Work
         rdf:about="">
        <dc:format>image/svg+xml</dc:format>
        <dc:type
           rdf:resource="http://purl.org/dc/dcmitype/StillImage" />
        <dc:title></dc:title>
      </cc:Work>
    </rdf:RDF>
  </metadata>
  <g
     transform="translate(-221.33852,-188.66755)"
     id="layer1">
    <path
       id="path4151"
       d="m 358.2896,487.49777 c -26.72857,-2.19422 -53.60033,-12.02219 -75.59841,-27.64907 -10.48384,-7.44745 -26.57866,-23.54227 -34.02611,-34.02611 -11.78977,-16.59654 -20.99529,-37.7406 -25.37591,-58.28561 -2.6245,-12.30888 -2.59415,-46.93518 0.0517,-59 6.65934,-30.36576 19.52763,-54.05022 41.05911,-75.57051 27.66001,-27.64562 60.97291,-42.4137 99.5768,-44.1438 34.41985,-1.54258 66.70467,8.42399 96.25388,29.71431 3.4351,2.475 10.78277,9.03796 16.32816,14.58436 20.84887,20.85267 35.08065,47.87581 41.05349,77.95192 2.73701,13.78211 2.48176,42.51412 -0.50159,56.46372 -6.76141,31.61505 -20.78275,56.93766 -43.77854,79.0643 -25.20815,24.25537 -56.01541,37.93964 -92.15543,40.93449 -6.43498,0.53326 -12.14997,0.91255 -12.69997,0.84288 -0.55,-0.0697 -5.13424,-0.46607 -10.1872,-0.88088 z m -43.01314,-66.5575 c 1.76019,-0.87819 20.30034,-18.64523 41.20034,-39.48232 l 38,-37.88561 5.5,1.47045 c 15.33603,4.10016 31.09257,-0.4465 43.07594,-12.42987 10.18136,-10.18136 14.70205,-21.94924 13.62494,-35.46728 -0.31153,-3.90976 -1.10696,-8.61784 -1.76763,-10.46239 l -1.20122,-3.35374 -14.61602,14.48763 -14.61601,14.48763 -10.5,-1.34634 c -5.775,-0.74049 -10.97486,-1.36324 -11.55526,-1.38389 -0.60155,-0.0214 -1.60486,-5.04805 -2.33357,-11.69133 l -1.27831,-11.65377 14.08357,-14.10874 c 7.74596,-7.75981 14.08357,-14.38213 14.08357,-14.71627 0,-0.66888 -6.42906,-2.43647 -12.17479,-3.34731 -6.01769,-0.95396 -16.75482,1.24085 -24.46987,5.00195 -7.40284,3.6089 -16.64009,12.26029 -19.97382,18.70703 -5.28921,10.2282 -6.96932,23.57951 -4.3008,34.17716 l 1.20263,4.77609 -38.55585,38.65881 c -32.59882,32.68588 -38.72275,39.27684 -39.6361,42.65882 -1.33686,4.95019 -1.34176,6.05839 -0.0474,10.71895 2.98442,10.74587 16.53493,17.03419 26.25566,12.18434 z m 131.61049,-8.81314 10.37442,-10.40984 -12.39228,-16.01369 -12.39229,-16.01369 -12.5,-4.75885 c -6.875,-2.61737 -13.57319,-5.57678 -14.88486,-6.57646 -4.0849,-3.1133 -7.18306,-2.33263 -12.61039,3.17756 l -4.92006,4.99517 3.5856,3.75483 c 2.61642,2.73989 4.76737,6.9524 7.95766,15.5846 l 4.37205,11.82979 15.92671,12.42021 c 8.7597,6.83112 16.19274,12.42022 16.51787,12.42022 0.32514,0 5.25964,-4.68443 10.96557,-10.40985 z m -92.56836,-111.47764 0.15821,-13.19108 -15.5,-15.36293 c -14.05849,-13.93416 -16.01126,-15.51333 -20.99734,-16.98026 -7.16035,-2.10661 -14.2792,-0.77418 -20.26784,3.79351 -8.20675,6.25949 -11.15083,15.24552 -8.25664,25.20118 1.56788,5.39333 2.85144,6.96024 19.84905,24.23089 9.99502,10.15558 19.9522,19.77196 22.12706,21.36973 l 3.95429,2.90505 9.3875,-9.3875 9.38751,-9.38751 0.1582,-13.19108 z"
       style="fill:#2a6ebb;fill-opacity:1" />
  </g>
</svg>
